<svg width="46" height="39" viewBox="0 0 46 39" fill="none" xmlns="http://www.w3.org/2000/svg">
<path fill-rule="evenodd" clip-rule="evenodd" d="M31.5786 22.7781H39.866V20.574H31.5786V22.7781ZM20.3506 28.3638L23.1711 22.7935H20.3506L26.2167 16.029L24.0447 21.1344L26.7056 21.0703L20.3506 28.3638ZM15.0277 22.778H11.9901V25.8157H9.786V22.778H6.74035V20.5739H9.786V17.5363H11.9901V20.5739H15.0277V22.778ZM2.59697 38.5109H43.9377V11.9977H2.59697V38.5109Z" fill="#C2AE8C"/>
<path fill-rule="evenodd" clip-rule="evenodd" d="M0.529297 10.3545H45.5336V7.18865H0.529297V10.3545Z" fill="#C2AE8C"/>
<path fill-rule="evenodd" clip-rule="evenodd" d="M10.8842 3.34587V6.08695H6.07525V3.34587C6.07525 2.0154 7.14925 0.941406 8.47971 0.941406C9.14495 0.941406 9.73805 1.2059 10.1789 1.64672C10.6117 2.07952 10.8842 2.68063 10.8842 3.34587Z" fill="#C2AE8C"/>
<path fill-rule="evenodd" clip-rule="evenodd" d="M39.8658 3.34587V6.08695H35.0569V3.34587C35.0569 2.0154 36.1309 0.941406 37.4613 0.941406C38.1266 0.941406 38.7277 1.2059 39.1605 1.64672C39.6013 2.07952 39.8658 2.68063 39.8658 3.34587Z" fill="#C2AE8C"/>
</svg>
