<svg width="93" height="40" viewBox="0 0 93 40" fill="none" xmlns="http://www.w3.org/2000/svg">
<path d="M23.2665 0.175781H84.0014C85.2088 0.175781 86.4686 0.333262 87.8334 0.700716C89.1458 1.06817 90.3006 1.6456 91.193 2.3805C92.0854 3.11541 92.6628 4.11279 92.9253 5.26764C93.1878 6.4225 92.8203 7.78733 91.8229 9.36213L78.8046 30.2545C77.8072 31.8293 76.4948 33.1942 74.8151 34.349C73.1353 35.5039 71.3505 36.4487 69.4607 37.2361C67.6235 37.9711 65.7862 38.5485 64.0014 38.9159C62.2166 39.2834 60.6943 39.4409 59.487 39.4409H3.37148C2.74156 39.4409 2.21663 39.3359 1.79668 39.1784C1.32424 39.0209 1.06178 38.6535 0.95679 38.2335C0.851803 37.7611 0.904298 37.1837 1.11427 36.3963C1.32425 35.6613 1.79668 34.664 2.53159 33.5091L13.3977 18.076L27.7809 12.9317L17.0198 30.1495C16.5998 30.8844 16.5998 31.2519 17.0198 31.3569H59.592C59.9069 31.3569 60.4319 31.2519 61.2193 31.0944C62.0067 30.9369 62.8465 30.622 63.7389 30.2545C64.6313 29.8871 65.4712 29.4671 66.3111 28.9422C67.151 28.4173 67.7809 27.8398 68.2009 27.1574L77.3872 12.4592C77.8072 11.7768 77.9122 11.1994 77.7547 10.6745C77.5972 10.1495 77.2298 9.72959 76.7573 9.36213C76.2849 8.99468 75.7599 8.73221 75.1825 8.52224C74.6576 8.36476 74.1851 8.25977 73.9227 8.25977H18.2271L23.2665 0.175781Z" fill="white"/>
</svg>
