<svg width="95" height="40" viewBox="0 0 95 40" fill="none" xmlns="http://www.w3.org/2000/svg">
<path d="M16.0581 27.1576C15.6382 27.8401 15.5332 28.4175 15.7432 28.9424C15.9532 29.4674 16.2681 29.8873 16.7406 30.2548C17.213 30.6222 17.7379 30.8847 18.3154 31.0947C18.8928 31.2521 19.3652 31.3571 19.7327 31.3571H62.1999C62.6198 31.3046 63.0923 30.8847 63.5647 30.1498L65.8219 26.5802H54.5358L42.3574 19.2311L70.3888 19.2836H82.8298L78.2104 26.6327L73.9059 33.5618C72.4361 35.8716 71.0188 37.4464 69.549 38.2338C68.1316 39.0737 66.7668 39.4936 65.507 39.4936H9.44398C8.18414 39.4936 6.87179 39.3361 5.55945 38.9687C4.24712 38.6012 3.14476 38.0238 2.25237 37.2889C1.35999 36.554 0.782552 35.5566 0.572578 34.4017C0.362605 33.2469 0.730065 31.8821 1.72744 30.3073L14.7458 9.41487C15.7432 7.84006 17.0555 6.47523 18.7353 5.32038C20.4151 4.16552 22.1474 3.22064 23.9847 2.48573C25.8219 1.69833 27.6067 1.1734 29.3915 0.805943C31.1763 0.438489 32.7511 0.228516 34.0109 0.228516H94.7458L89.7589 8.365H34.0634C33.6959 8.365 33.1185 8.46999 32.2786 8.62747C31.4387 8.78495 30.5988 9.09991 29.654 9.46736C28.7616 9.83481 27.8692 10.2548 27.0293 10.7797C26.1894 11.3046 25.612 11.8821 25.192 12.5645L16.0581 27.1576Z" fill="white"/>
</svg>
