<svg width="266" height="40" viewBox="0 0 266 40" fill="none" xmlns="http://www.w3.org/2000/svg">
<path d="M106.877 9.12569e-08H167.612C168.819 9.12569e-08 170.079 0.15748 171.444 0.524934C172.756 0.892389 173.911 1.46982 174.803 2.20472C175.696 2.93963 176.273 3.93701 176.535 5.09186C176.798 6.24672 176.43 7.61155 175.433 9.18635L162.415 30.0787C161.417 31.6535 160.105 33.0184 158.425 34.1732C156.745 35.3281 154.961 36.273 153.071 37.0604C151.234 37.7953 149.396 38.3727 147.612 38.7402C145.827 39.1076 144.304 39.2651 143.097 39.2651H86.9816C86.3517 39.2651 85.8268 39.1601 85.4068 39.0026C84.9344 38.8451 84.6719 38.4777 84.5669 38.0577C84.4619 37.5853 84.5144 37.0079 84.7244 36.2205C84.9344 35.4856 85.4068 34.4882 86.1417 33.3333L97.0079 17.9003L111.391 12.7559L100.63 29.9738C100.21 30.7087 100.21 31.0761 100.63 31.1811H143.202C143.517 31.1811 144.042 31.0761 144.829 30.9186C145.617 30.7612 146.457 30.4462 147.349 30.0787C148.241 29.7113 149.081 29.2913 149.921 28.7664C150.761 28.2415 151.391 27.664 151.811 26.9816L160.997 12.2835C161.417 11.601 161.522 11.0236 161.365 10.4987C161.207 9.97375 160.84 9.5538 160.367 9.18635C159.895 8.8189 159.37 8.55643 158.793 8.34646C158.268 8.18898 157.795 8.08399 157.533 8.08399H101.837L106.877 9.12569e-08Z" fill="white"/>
<path d="M57.2703 19.9475L74.4882 39.2651H59.2651L46.6142 25.2493L16.7979 39.2651H0L41.5748 19.4226L24.5669 0H39.5276L52.231 14.2257L56.273 12.2835L81.9947 0H99.0026L73.3333 12.2835L57.2703 19.9475Z" fill="white"/>
<path d="M186.667 26.9816C186.247 27.664 186.142 28.2415 186.352 28.7664C186.562 29.2913 186.877 29.7113 187.349 30.0787C187.822 30.4462 188.346 30.7087 188.924 30.9186C189.501 31.0761 189.974 31.1811 190.341 31.1811H232.808C233.228 31.1286 233.701 30.7087 234.173 29.9737L236.43 26.4042H225.144L212.966 19.0551L240.997 19.1076H253.438L248.819 26.4567L244.514 33.3858C243.045 35.6955 241.627 37.2703 240.157 38.0577C238.74 38.8976 237.375 39.3176 236.115 39.3176H180.052C178.793 39.3176 177.48 39.1601 176.168 38.7927C174.856 38.4252 173.753 37.8478 172.861 37.1129C171.968 36.378 171.391 35.3806 171.181 34.2257C170.971 33.0709 171.339 31.706 172.336 30.1312L185.354 9.23884C186.352 7.66404 187.664 6.29921 189.344 5.14436C191.024 3.9895 192.756 3.04462 194.593 2.30971C196.43 1.52231 198.215 0.997375 200 0.629921C201.785 0.262467 203.36 0.0524937 204.619 0.0524937H265.354L260.367 8.18898H204.672C204.304 8.18898 203.727 8.29396 202.887 8.45144C202.047 8.60892 201.207 8.92388 200.262 9.29134C199.37 9.65879 198.478 10.0787 197.638 10.6037C196.798 11.1286 196.22 11.706 195.801 12.3885L186.667 26.9816Z" fill="white"/>
</svg>
