<svg width="53" height="51" viewBox="0 0 53 51" fill="none" xmlns="http://www.w3.org/2000/svg">
<path d="M26.3356 44.4654C30.0471 44.4654 33.0684 41.4686 33.0684 37.7871C33.0684 34.9032 31.2159 32.4489 28.6309 31.5156V28.6221H34.82C36.0376 28.6221 37.0274 27.6371 37.0274 26.4326C37.0274 25.2216 36.0376 24.2398 34.82 24.2398H28.6309V20.5971H34.82C36.0376 20.5971 37.0274 19.6121 37.0274 18.4044C37.0274 17.1966 36.0376 16.2116 34.82 16.2116H28.6309V12.5688H34.82C36.0376 12.5688 37.0274 11.5871 37.0274 10.3794C37.0274 9.17158 36.0376 8.1866 34.82 8.1866H28.6309V2.45769C28.6309 1.20147 27.5988 0.177734 26.3356 0.177734C25.0691 0.177734 24.0403 1.20147 24.0403 2.45769V31.5156C21.4552 32.4489 19.6027 34.9032 19.6027 37.7871C19.6027 41.4686 22.6241 44.4654 26.3356 44.4654Z" fill="#C2AE8C"/>
<path d="M51.4151 37.2131C50.8332 37.2131 50.6018 37.037 50.0167 36.5235C49.3351 35.9279 48.3064 35.0271 46.4193 35.0271C44.5322 35.0271 43.5035 35.9279 42.8252 36.5235C42.2369 37.037 42.0054 37.2131 41.4268 37.2131C40.8481 37.2131 40.6134 37.037 40.0315 36.5235C39.35 35.9279 38.3213 35.0271 36.4342 35.0271C35.5598 35.0271 34.8493 35.6755 34.8493 36.4736C34.8493 37.2718 35.5598 37.9232 36.4342 37.9232C37.0161 37.9232 37.2476 38.0993 37.8294 38.6128C38.511 39.2084 39.5397 40.1092 41.4268 40.1092C43.3139 40.1092 44.3426 39.2084 45.0209 38.6128C45.606 38.0993 45.8407 37.9232 46.4193 37.9232C47.0012 37.9232 47.2327 38.0993 47.8178 38.6128C48.4993 39.2084 49.528 40.1092 51.4151 40.1092C52.2895 40.1092 53 39.4637 53 38.6597C53 37.8616 52.2895 37.2131 51.4151 37.2131Z" fill="#C2AE8C"/>
<path d="M10.1716 38.6128C10.7567 38.0993 10.9881 37.9232 11.57 37.9232C12.1487 37.9232 12.3801 38.0993 12.9685 38.6128C13.6468 39.2084 14.6755 40.1092 16.5626 40.1092C17.4402 40.1092 18.1507 39.4637 18.1507 38.6597C18.1507 37.8616 17.4402 37.2131 16.5626 37.2131C15.9839 37.2131 15.7492 37.037 15.1641 36.5235C14.4858 35.9279 13.4571 35.0271 11.57 35.0271C9.68293 35.0271 8.6542 35.9279 7.97266 36.5235C7.38757 37.037 7.15612 37.2131 6.57424 37.2131C5.99558 37.2131 5.76411 37.037 5.17901 36.5235C4.49748 35.9279 3.47197 35.0271 1.58489 35.0271C0.710465 35.0271 0 35.6755 0 36.4736C0 37.2718 0.710465 37.9232 1.58489 37.9232C2.16355 37.9232 2.39502 38.0993 2.98011 38.6128C3.66165 39.2084 4.69038 40.1092 6.57424 40.1092C8.46132 40.1092 9.49005 39.2084 10.1716 38.6128Z" fill="#C2AE8C"/>
<path d="M44.9071 45.9175C43.1308 45.9175 42.1653 46.8007 41.5279 47.3854C40.9979 47.8708 40.8054 48.0245 40.3037 48.0245C39.8021 48.0245 39.6096 47.8708 39.0796 47.3854C38.4422 46.8007 37.4767 45.9175 35.6972 45.9175C33.9209 45.9175 32.9554 46.8007 32.3181 47.3854C31.788 47.8708 31.5956 48.0245 31.097 48.0245C30.5954 48.0245 30.4061 47.8708 29.876 47.3854C29.2355 46.8007 28.27 45.9175 26.4937 45.9175C24.7173 45.9175 23.7519 46.8007 23.1145 47.3854C22.5845 47.8708 22.392 48.0245 21.8935 48.0245C21.3918 48.0245 21.2025 47.8708 20.6724 47.3854C20.0351 46.8007 19.0696 45.9175 17.2933 45.9175C15.5169 45.9175 14.5515 46.8007 13.9141 47.3854C13.3841 47.8708 13.1916 48.0245 12.6931 48.0245C12.1946 48.0245 12.0021 47.8708 11.4689 47.3854C10.8316 46.8007 9.86923 45.9175 8.08973 45.9175C7.23153 45.9175 6.53425 46.5806 6.53425 47.4036C6.53425 48.2265 7.23153 48.8896 8.08973 48.8896C8.5914 48.8896 8.78071 49.0464 9.31393 49.5317C9.95127 50.1164 10.9136 50.9997 12.6931 50.9997C14.4694 50.9997 15.4317 50.1164 16.0722 49.5317C16.6023 49.0464 16.7916 48.8896 17.2933 48.8896C17.7918 48.8896 17.9843 49.0464 18.5143 49.5317C19.1517 50.1164 20.1171 50.9997 21.8935 50.9997C23.6698 50.9997 24.6353 50.1164 25.2727 49.5317C25.8027 49.0464 25.992 48.8896 26.4937 48.8896C26.9954 48.8896 27.1878 49.0464 27.7147 49.5317C28.3552 50.1164 29.3207 50.9997 31.097 50.9997C32.8734 50.9997 33.8389 50.1164 34.4762 49.5317C35.0063 49.0464 35.1987 48.8896 35.6972 48.8896C36.1989 48.8896 36.3914 49.0464 36.9246 49.5317C37.5619 50.1164 38.5274 50.9997 40.3037 50.9997C42.0801 50.9997 43.0456 50.1164 43.6829 49.5317C44.2161 49.0464 44.4086 48.8896 44.9071 48.8896C45.7685 48.8896 46.4658 48.2265 46.4658 47.4036C46.4658 46.5806 45.7685 45.9175 44.9071 45.9175Z" fill="#C2AE8C"/>
</svg>
