<svg width="46" height="46" viewBox="0 0 46 46" fill="none" xmlns="http://www.w3.org/2000/svg">
<path d="M0.240234 22.8C0.240234 10.2079 10.4481 0 23.0402 0C35.6323 0 45.8402 10.2079 45.8402 22.8C45.8402 35.3921 35.6323 45.6 23.0402 45.6C10.4481 45.6 0.240234 35.3921 0.240234 22.8Z" fill="#5B5B5B" fill-opacity="0.1"/>
<path d="M12.0957 24.1676C12.0957 23.8048 12.2398 23.4569 12.4964 23.2003C12.7529 22.9438 13.1009 22.7996 13.4637 22.7996H16.1997C16.5625 22.7996 16.9105 22.9438 17.167 23.2003C17.4235 23.4569 17.5677 23.8048 17.5677 24.1676V31.0076C17.5677 31.3704 17.4235 31.7184 17.167 31.9749C16.9105 32.2315 16.5625 32.3756 16.1997 32.3756H13.4637C13.1009 32.3756 12.7529 32.2315 12.4964 31.9749C12.2398 31.7184 12.0957 31.3704 12.0957 31.0076V24.1676ZM20.3037 18.6956C20.3037 18.3328 20.4478 17.9849 20.7044 17.7283C20.9609 17.4718 21.3089 17.3276 21.6717 17.3276H24.4077C24.7705 17.3276 25.1185 17.4718 25.375 17.7283C25.6315 17.9849 25.7757 18.3328 25.7757 18.6956V31.0076C25.7757 31.3704 25.6315 31.7184 25.375 31.9749C25.1185 32.2315 24.7705 32.3756 24.4077 32.3756H21.6717C21.3089 32.3756 20.9609 32.2315 20.7044 31.9749C20.4478 31.7184 20.3037 31.3704 20.3037 31.0076V18.6956ZM28.5117 14.5916C28.5117 14.2288 28.6558 13.8809 28.9124 13.6243C29.1689 13.3678 29.5169 13.2236 29.8797 13.2236H32.6157C32.9785 13.2236 33.3265 13.3678 33.583 13.6243C33.8395 13.8809 33.9837 14.2288 33.9837 14.5916V31.0076C33.9837 31.3704 33.8395 31.7184 33.583 31.9749C33.3265 32.2315 32.9785 32.3756 32.6157 32.3756H29.8797C29.5169 32.3756 29.1689 32.2315 28.9124 31.9749C28.6558 31.7184 28.5117 31.3704 28.5117 31.0076V14.5916Z" fill="#5F5F5F"/>
</svg>
