<svg width="46" height="46" viewBox="0 0 46 46" fill="none" xmlns="http://www.w3.org/2000/svg">
<path d="M0.25 23.0402C0.25 10.4481 10.4579 0.240234 23.05 0.240234C35.6421 0.240234 45.85 10.4481 45.85 23.0402C45.85 35.6323 35.6421 45.8402 23.05 45.8402C10.4579 45.8402 0.25 35.6323 0.25 23.0402Z" fill="#5B5B5B" fill-opacity="0.1"/>
<path fill-rule="evenodd" clip-rule="evenodd" d="M23.728 12.2758C23.5214 12.1578 23.2874 12.0957 23.0495 12.0957C22.8114 12.0957 22.5776 12.1578 22.3709 12.2758L12.7949 17.7478C12.5332 17.8976 12.3283 18.1296 12.212 18.4078C12.0957 18.6861 12.0747 18.9949 12.1521 19.2863C12.2294 19.5778 12.4009 19.8355 12.6399 20.0194C12.8789 20.2033 13.1719 20.3031 13.4735 20.3033V29.8793C13.1107 29.8793 12.7627 30.0234 12.5061 30.2799C12.2496 30.5365 12.1055 30.8844 12.1055 31.2473C12.1055 31.6101 12.2496 31.958 12.5061 32.2146C12.7627 32.4712 13.1107 32.6153 13.4735 32.6153H32.6255C32.9883 32.6153 33.3362 32.4712 33.5928 32.2146C33.8494 31.958 33.9935 31.6101 33.9935 31.2473C33.9935 30.8844 33.8494 30.5365 33.5928 30.2799C33.3362 30.0234 32.9883 29.8793 32.6255 29.8793V20.3033C32.927 20.3031 33.22 20.2033 33.459 20.0194C33.698 19.8355 33.8695 19.5778 33.9469 19.2863C34.0242 18.9949 34.0032 18.6861 33.8869 18.4078C33.7706 18.1296 33.5657 17.8976 33.304 17.7478L23.728 12.2758ZM17.5775 21.6713C17.2146 21.6713 16.8667 21.8154 16.6101 22.0719C16.3536 22.3285 16.2095 22.6764 16.2095 23.0393V27.1433C16.2095 27.5061 16.3536 27.854 16.6101 28.1106C16.8667 28.3672 17.2146 28.5113 17.5775 28.5113C17.9403 28.5113 18.2882 28.3672 18.5448 28.1106C18.8014 27.854 18.9455 27.5061 18.9455 27.1433V23.0393C18.9455 22.6764 18.8014 22.3285 18.5448 22.0719C18.2882 21.8154 17.9403 21.6713 17.5775 21.6713ZM21.6815 23.0393C21.6815 22.6764 21.8256 22.3285 22.0821 22.0719C22.3387 21.8154 22.6866 21.6713 23.0495 21.6713C23.4123 21.6713 23.7602 21.8154 24.0168 22.0719C24.2734 22.3285 24.4175 22.6764 24.4175 23.0393V27.1433C24.4175 27.5061 24.2734 27.854 24.0168 28.1106C23.7602 28.3672 23.4123 28.5113 23.0495 28.5113C22.6866 28.5113 22.3387 28.3672 22.0821 28.1106C21.8256 27.854 21.6815 27.5061 21.6815 27.1433V23.0393ZM28.5215 21.6713C28.1586 21.6713 27.8107 21.8154 27.5541 22.0719C27.2976 22.3285 27.1535 22.6764 27.1535 23.0393V27.1433C27.1535 27.5061 27.2976 27.854 27.5541 28.1106C27.8107 28.3672 28.1586 28.5113 28.5215 28.5113C28.8843 28.5113 29.2322 28.3672 29.4888 28.1106C29.7454 27.854 29.8895 27.5061 29.8895 27.1433V23.0393C29.8895 22.6764 29.7454 22.3285 29.4888 22.0719C29.2322 21.8154 28.8843 21.6713 28.5215 21.6713Z" fill="#5F5F5F"/>
</svg>
