<svg width="47" height="46" viewBox="0 0 47 46" fill="none" xmlns="http://www.w3.org/2000/svg">
<path d="M0.755859 23.0402C0.755859 10.4481 10.9638 0.240234 23.5559 0.240234C36.1479 0.240234 46.3559 10.4481 46.3559 23.0402C46.3559 35.6323 36.1479 45.8402 23.5559 45.8402C10.9638 45.8402 0.755859 35.6323 0.755859 23.0402Z" fill="#5B5B5B" fill-opacity="0.1"/>
<path fill-rule="evenodd" clip-rule="evenodd" d="M15.3473 16.1999C14.6217 16.1999 13.9258 16.4881 13.4127 17.0012C12.8996 17.5143 12.6113 18.2102 12.6113 18.9359V29.8799C12.6113 30.6055 12.8996 31.3014 13.4127 31.8145C13.9258 32.3276 14.6217 32.6159 15.3473 32.6159H31.7633C32.489 32.6159 33.1848 32.3276 33.698 31.8145C34.2111 31.3014 34.4993 30.6055 34.4993 29.8799V18.9359C34.4993 18.2102 34.2111 17.5143 33.698 17.0012C33.1848 16.4881 32.489 16.1999 31.7633 16.1999H29.5937C29.2309 16.1998 28.883 16.0556 28.6265 15.799L27.093 14.2655C26.58 13.7524 25.8842 13.464 25.1586 13.4639H21.952C21.2265 13.464 20.5307 13.7524 20.0177 14.2655L18.4842 15.799C18.2277 16.0556 17.8797 16.1998 17.517 16.1999H15.3473ZM23.5553 28.5119C24.0942 28.5119 24.6279 28.4057 25.1259 28.1994C25.6237 27.9933 26.0762 27.6909 26.4573 27.3099C26.8384 26.9287 27.1407 26.4763 27.3469 25.9784C27.5532 25.4805 27.6593 24.9468 27.6593 24.4079C27.6593 23.869 27.5532 23.3353 27.3469 22.8373C27.1407 22.3394 26.8384 21.887 26.4573 21.5059C26.0762 21.1248 25.6237 20.8225 25.1259 20.6162C24.6279 20.41 24.0942 20.3039 23.5553 20.3039C22.4669 20.3039 21.423 20.7362 20.6533 21.5059C19.8837 22.2755 19.4513 23.3194 19.4513 24.4079C19.4513 25.4963 19.8837 26.5402 20.6533 27.3099C21.423 28.0795 22.4669 28.5119 23.5553 28.5119Z" fill="#5F5F5F"/>
</svg>
