<svg width="46" height="46" viewBox="0 0 46 46" fill="none" xmlns="http://www.w3.org/2000/svg">
<path d="M0.240234 23.0402C0.240234 10.4481 10.4481 0.240234 23.0402 0.240234C35.6323 0.240234 45.8402 10.4481 45.8402 23.0402C45.8402 35.6323 35.6323 45.8402 23.0402 45.8402C10.4481 45.8402 0.240234 35.6323 0.240234 23.0402Z" fill="#5B5B5B" fill-opacity="0.1"/>
<path d="M21.6715 12.0957C20.9459 12.0957 20.25 12.384 19.7369 12.8971C19.2238 13.4102 18.9355 14.1061 18.9355 14.8317V25.7757C18.9355 26.5013 19.2238 27.1973 19.7369 27.7104C20.25 28.2234 20.9459 28.5117 21.6715 28.5117H29.8795C30.6052 28.5117 31.3011 28.2234 31.8142 27.7104C32.3273 27.1973 32.6155 26.5013 32.6155 25.7757V18.134C32.6154 17.4085 32.3271 16.7127 31.8139 16.1997L28.5115 12.8974C27.9985 12.3842 27.3028 12.0959 26.5772 12.0957H21.6715Z" fill="#5F5F5F"/>
<path d="M13.4648 20.3034C13.4648 19.5777 13.7531 18.8818 14.2662 18.3687C14.7793 17.8557 15.4752 17.5674 16.2008 17.5674V31.2474H27.1448C27.1448 31.973 26.8566 32.6689 26.3435 33.182C25.8304 33.6951 25.1345 33.9834 24.4088 33.9834H16.2008C15.4752 33.9834 14.7793 33.6951 14.2662 33.182C13.7531 32.6689 13.4648 31.973 13.4648 31.2474V20.3034Z" fill="#5F5F5F"/>
</svg>
