<svg width="46" height="46" viewBox="0 0 46 46" fill="none" xmlns="http://www.w3.org/2000/svg">
<path d="M0.25 22.8C0.25 10.2079 10.4579 0 23.05 0C35.6421 0 45.85 10.2079 45.85 22.8C45.85 35.3921 35.6421 45.6 23.05 45.6C10.4579 45.6 0.25 35.3921 0.25 22.8Z" fill="#5B5B5B" fill-opacity="0.1"/>
<path d="M16.209 14.5924C16.209 13.8668 16.4972 13.1709 17.0103 12.6578C17.5234 12.1447 18.2193 11.8564 18.945 11.8564H27.153C27.8786 11.8564 28.5746 12.1447 29.0876 12.6578C29.6007 13.1709 29.889 13.8668 29.889 14.5924V33.7445L23.049 30.3245L16.209 33.7445V14.5924Z" fill="#5F5F5F"/>
</svg>
