<svg width="46" height="47" viewBox="0 0 46 47" fill="none" xmlns="http://www.w3.org/2000/svg">
<path d="M0.240234 23.5598C0.240234 10.9677 10.4481 0.759766 23.0402 0.759766C35.6323 0.759766 45.8402 10.9677 45.8402 23.5598C45.8402 36.1519 35.6323 46.3598 23.0402 46.3598C10.4481 46.3598 0.240234 36.1519 0.240234 23.5598Z" fill="#5B5B5B" fill-opacity="0.1"/>
<path fill-rule="evenodd" clip-rule="evenodd" d="M16.5646 11.9625C20.8669 11.463 25.2126 11.463 29.515 11.9625C31.2215 12.1609 32.4448 13.6269 32.4448 15.3027V32.1097C32.4448 33.0168 32.0844 33.8866 31.4431 34.528C30.8017 35.1694 29.9318 35.5297 29.0248 35.5297H17.0548C16.1477 35.5297 15.2778 35.1694 14.6365 34.528C13.9951 33.8866 13.6348 33.0168 13.6348 32.1097V15.3027C13.6348 13.6269 14.858 12.1609 16.5646 11.9625ZM17.9098 22.7047C17.9098 22.478 17.9998 22.2605 18.1602 22.1001C18.3205 21.9398 18.538 21.8497 18.7648 21.8497H18.7739C19.0006 21.8497 19.2181 21.9398 19.3785 22.1001C19.5388 22.2605 19.6289 22.478 19.6289 22.7047V22.7138C19.6289 22.9406 19.5388 23.1581 19.3785 23.3184C19.2181 23.4788 19.0006 23.5688 18.7739 23.5688H18.7648C18.538 23.5688 18.3205 23.4788 18.1602 23.3184C17.9998 23.1581 17.9098 22.9406 17.9098 22.7138V22.7047ZM18.7648 24.4147C18.538 24.4147 18.3205 24.5048 18.1602 24.6651C17.9998 24.8255 17.9098 25.043 17.9098 25.2697V25.2788C17.9098 25.7508 18.2928 26.1338 18.7648 26.1338H18.7739C19.0006 26.1338 19.2181 26.0438 19.3785 25.8834C19.5388 25.7231 19.6289 25.5056 19.6289 25.2788V25.2697C19.6289 25.043 19.5388 24.8255 19.3785 24.6651C19.2181 24.5048 19.0006 24.4147 18.7739 24.4147H18.7648ZM17.9098 27.8347C17.9098 27.608 17.9998 27.3905 18.1602 27.2301C18.3205 27.0698 18.538 26.9797 18.7648 26.9797H18.7739C19.0006 26.9797 19.2181 27.0698 19.3785 27.2301C19.5388 27.3905 19.6289 27.608 19.6289 27.8347V27.8438C19.6289 28.0706 19.5388 28.2881 19.3785 28.4484C19.2181 28.6088 19.0006 28.6988 18.7739 28.6988H18.7648C18.538 28.6988 18.3205 28.6088 18.1602 28.4484C17.9998 28.2881 17.9098 28.0706 17.9098 27.8438V27.8347ZM18.7648 29.5447C18.538 29.5447 18.3205 29.6348 18.1602 29.7951C17.9998 29.9555 17.9098 30.173 17.9098 30.3997V30.4088C17.9098 30.8808 18.2928 31.2638 18.7648 31.2638H18.7739C19.0006 31.2638 19.2181 31.1738 19.3785 31.0134C19.5388 30.8531 19.6289 30.6356 19.6289 30.4088V30.3997C19.6289 30.173 19.5388 29.9555 19.3785 29.7951C19.2181 29.6348 19.0006 29.5447 18.7739 29.5447H18.7648ZM20.7575 22.7047C20.7575 22.478 20.8476 22.2605 21.0079 22.1001C21.1683 21.9398 21.3857 21.8497 21.6125 21.8497H21.6205C21.8472 21.8497 22.0647 21.9398 22.225 22.1001C22.3854 22.2605 22.4755 22.478 22.4755 22.7047V22.7138C22.4755 22.9406 22.3854 23.1581 22.225 23.3184C22.0647 23.4788 21.8472 23.5688 21.6205 23.5688H21.6125C21.3857 23.5688 21.1683 23.4788 21.0079 23.3184C20.8476 23.1581 20.7575 22.9406 20.7575 22.7138V22.7047ZM21.6125 24.4147C21.3857 24.4147 21.1683 24.5048 21.0079 24.6651C20.8476 24.8255 20.7575 25.043 20.7575 25.2697V25.2788C20.7575 25.7508 21.1394 26.1338 21.6125 26.1338H21.6205C21.8472 26.1338 22.0647 26.0438 22.225 25.8834C22.3854 25.7231 22.4755 25.5056 22.4755 25.2788V25.2697C22.4755 25.043 22.3854 24.8255 22.225 24.6651C22.0647 24.5048 21.8472 24.4147 21.6205 24.4147H21.6125ZM20.7575 27.8347C20.7575 27.608 20.8476 27.3905 21.0079 27.2301C21.1683 27.0698 21.3857 26.9797 21.6125 26.9797H21.6205C21.8472 26.9797 22.0647 27.0698 22.225 27.2301C22.3854 27.3905 22.4755 27.608 22.4755 27.8347V27.8438C22.4755 28.0706 22.3854 28.2881 22.225 28.4484C22.0647 28.6088 21.8472 28.6988 21.6205 28.6988H21.6125C21.3857 28.6988 21.1683 28.6088 21.0079 28.4484C20.8476 28.2881 20.7575 28.0706 20.7575 27.8438V27.8347ZM21.6125 29.5447C21.3857 29.5447 21.1683 29.6348 21.0079 29.7951C20.8476 29.9555 20.7575 30.173 20.7575 30.3997V30.4088C20.7575 30.8808 21.1394 31.2638 21.6125 31.2638H21.6205C21.8472 31.2638 22.0647 31.1738 22.225 31.0134C22.3854 30.8531 22.4755 30.6356 22.4755 30.4088V30.3997C22.4755 30.173 22.3854 29.9555 22.225 29.7951C22.0647 29.6348 21.8472 29.5447 21.6205 29.5447H21.6125ZM23.612 22.7047C23.612 22.478 23.7021 22.2605 23.8625 22.1001C24.0228 21.9398 24.2403 21.8497 24.467 21.8497H24.4762C24.7029 21.8497 24.9204 21.9398 25.0807 22.1001C25.2411 22.2605 25.3312 22.478 25.3312 22.7047V22.7138C25.3312 22.9406 25.2411 23.1581 25.0807 23.3184C24.9204 23.4788 24.7029 23.5688 24.4762 23.5688H24.467C24.2403 23.5688 24.0228 23.4788 23.8625 23.3184C23.7021 23.1581 23.612 22.9406 23.612 22.7138V22.7047ZM24.467 24.4147C24.2403 24.4147 24.0228 24.5048 23.8625 24.6651C23.7021 24.8255 23.612 25.043 23.612 25.2697V25.2788C23.612 25.7508 23.9951 26.1338 24.467 26.1338H24.4762C24.7029 26.1338 24.9204 26.0438 25.0807 25.8834C25.2411 25.7231 25.3312 25.5056 25.3312 25.2788V25.2697C25.3312 25.043 25.2411 24.8255 25.0807 24.6651C24.9204 24.5048 24.7029 24.4147 24.4762 24.4147H24.467ZM23.612 27.8347C23.612 27.608 23.7021 27.3905 23.8625 27.2301C24.0228 27.0698 24.2403 26.9797 24.467 26.9797H24.4762C24.7029 26.9797 24.9204 27.0698 25.0807 27.2301C25.2411 27.3905 25.3312 27.608 25.3312 27.8347V27.8438C25.3312 28.0706 25.2411 28.2881 25.0807 28.4484C24.9204 28.6088 24.7029 28.6988 24.4762 28.6988H24.467C24.2403 28.6988 24.0228 28.6088 23.8625 28.4484C23.7021 28.2881 23.612 28.0706 23.612 27.8438V27.8347ZM24.467 29.5447C24.2403 29.5447 24.0228 29.6348 23.8625 29.7951C23.7021 29.9555 23.612 30.173 23.612 30.3997V30.4088C23.612 30.8808 23.9951 31.2638 24.467 31.2638H24.4762C24.7029 31.2638 24.9204 31.1738 25.0807 31.0134C25.2411 30.8531 25.3312 30.6356 25.3312 30.4088V30.3997C25.3312 30.173 25.2411 29.9555 25.0807 29.7951C24.9204 29.6348 24.7029 29.5447 24.4762 29.5447H24.467ZM26.4598 22.7047C26.4598 22.478 26.5498 22.2605 26.7102 22.1001C26.8705 21.9398 27.088 21.8497 27.3148 21.8497H27.3239C27.5506 21.8497 27.7681 21.9398 27.9285 22.1001C28.0888 22.2605 28.1789 22.478 28.1789 22.7047V22.7138C28.1789 22.9406 28.0888 23.1581 27.9285 23.3184C27.7681 23.4788 27.5506 23.5688 27.3239 23.5688H27.3148C27.088 23.5688 26.8705 23.4788 26.7102 23.3184C26.5498 23.1581 26.4598 22.9406 26.4598 22.7138V22.7047ZM27.3148 24.4147C27.088 24.4147 26.8705 24.5048 26.7102 24.6651C26.5498 24.8255 26.4598 25.043 26.4598 25.2697V25.2788C26.4598 25.7508 26.8428 26.1338 27.3148 26.1338H27.3239C27.5506 26.1338 27.7681 26.0438 27.9285 25.8834C28.0888 25.7231 28.1789 25.5056 28.1789 25.2788V25.2697C28.1789 25.043 28.0888 24.8255 27.9285 24.6651C27.7681 24.5048 27.5506 24.4147 27.3239 24.4147H27.3148ZM17.9098 17.5747C17.9098 17.4624 17.9319 17.3513 17.9748 17.2475C18.0178 17.1438 18.0808 17.0495 18.1602 16.9701C18.2396 16.8907 18.3338 16.8278 18.4376 16.7848C18.5413 16.7418 18.6525 16.7197 18.7648 16.7197H27.3148C27.5415 16.7197 27.759 16.8098 27.9193 16.9701C28.0797 17.1305 28.1698 17.348 28.1698 17.5747V18.4297C28.1698 18.6565 28.0797 18.8739 27.9193 19.0343C27.759 19.1946 27.5415 19.2847 27.3148 19.2847H18.7648C18.538 19.2847 18.3205 19.1946 18.1602 19.0343C17.9998 18.8739 17.9098 18.6565 17.9098 18.4297V17.5747ZM28.1698 27.8347C28.1698 27.608 28.0797 27.3905 27.9193 27.2301C27.759 27.0698 27.5415 26.9797 27.3148 26.9797C27.088 26.9797 26.8705 27.0698 26.7102 27.2301C26.5498 27.3905 26.4598 27.608 26.4598 27.8347V30.3997C26.4598 30.6265 26.5498 30.8439 26.7102 31.0043C26.8705 31.1646 27.088 31.2547 27.3148 31.2547C27.5415 31.2547 27.759 31.1646 27.9193 31.0043C28.0797 30.8439 28.1698 30.6265 28.1698 30.3997V27.8347Z" fill="#5F5F5F"/>
</svg>
