<svg width="47" height="46" viewBox="0 0 47 46" fill="none" xmlns="http://www.w3.org/2000/svg">
<path d="M0.755859 22.8C0.755859 10.2079 10.9638 0 23.5559 0C36.1479 0 46.3559 10.2079 46.3559 22.8C46.3559 35.3921 36.1479 45.6 23.5559 45.6C10.9638 45.6 0.755859 35.3921 0.755859 22.8Z" fill="#5B5B5B" fill-opacity="0.1"/>
<path fill-rule="evenodd" clip-rule="evenodd" d="M23.5564 11.6855C17.4175 11.6855 12.4414 16.6616 12.4414 22.8005C12.4414 28.9394 17.4175 33.9155 23.5564 33.9155C29.6953 33.9155 34.6714 28.9394 34.6714 22.8005C34.6714 16.6616 29.6953 11.6855 23.5564 11.6855ZM24.4114 15.9605C24.4114 15.7338 24.3213 15.5163 24.161 15.356C24.0006 15.1956 23.7832 15.1055 23.5564 15.1055C23.3296 15.1055 23.1122 15.1956 22.9518 15.356C22.7915 15.5163 22.7014 15.7338 22.7014 15.9605V22.8005C22.7014 23.2725 23.0844 23.6555 23.5564 23.6555H28.6864C28.9132 23.6555 29.1306 23.5655 29.291 23.4051C29.4513 23.2448 29.5414 23.0273 29.5414 22.8005C29.5414 22.5738 29.4513 22.3563 29.291 22.196C29.1306 22.0356 28.9132 21.9455 28.6864 21.9455H24.4114V15.9605Z" fill="#5F5F5F"/>
</svg>
