<svg width="47" height="46" viewBox="0 0 47 46" fill="none" xmlns="http://www.w3.org/2000/svg">
<path d="M0.746094 23.0402C0.746094 10.4481 10.954 0.240234 23.5461 0.240234C36.1382 0.240234 46.3461 10.4481 46.3461 23.0402C46.3461 35.6323 36.1382 45.8402 23.5461 45.8402C10.954 45.8402 0.746094 35.6323 0.746094 23.0402Z" fill="#5B5B5B" fill-opacity="0.1"/>
<path fill-rule="evenodd" clip-rule="evenodd" d="M15.3379 14.8317C15.3379 14.1061 15.6261 13.4102 16.1392 12.8971C16.6523 12.384 17.3483 12.0957 18.0739 12.0957H24.3475C25.0731 12.0959 25.7689 12.3842 26.2819 12.8974L30.9522 17.5677C31.4654 18.0806 31.7537 18.7765 31.7539 19.5021V31.2477C31.7539 31.9734 31.4656 32.6692 30.9525 33.1824C30.4394 33.6955 29.7435 33.9837 29.0179 33.9837H18.0739C17.3483 33.9837 16.6523 33.6955 16.1392 33.1824C15.6261 32.6692 15.3379 31.9734 15.3379 31.2477V14.8317ZM18.0739 23.0397C18.0739 22.6769 18.218 22.3289 18.4746 22.0724C18.7311 21.8158 19.0791 21.6717 19.4419 21.6717H27.6499C28.0127 21.6717 28.3606 21.8158 28.6172 22.0724C28.8738 22.3289 29.0179 22.6769 29.0179 23.0397C29.0179 23.4025 28.8738 23.7505 28.6172 24.007C28.3606 24.2635 28.0127 24.4077 27.6499 24.4077H19.4419C19.0791 24.4077 18.7311 24.2635 18.4746 24.007C18.218 23.7505 18.0739 23.4025 18.0739 23.0397ZM19.4419 27.1437C19.0791 27.1437 18.7311 27.2878 18.4746 27.5444C18.218 27.8009 18.0739 28.1489 18.0739 28.5117C18.0739 28.8745 18.218 29.2225 18.4746 29.479C18.7311 29.7355 19.0791 29.8797 19.4419 29.8797H27.6499C28.0127 29.8797 28.3606 29.7355 28.6172 29.479C28.8738 29.2225 29.0179 28.8745 29.0179 28.5117C29.0179 28.1489 28.8738 27.8009 28.6172 27.5444C28.3606 27.2878 28.0127 27.1437 27.6499 27.1437H19.4419Z" fill="#5F5F5F"/>
</svg>
