<svg width="47" height="46" viewBox="0 0 47 46" fill="none" xmlns="http://www.w3.org/2000/svg">
<path d="M0.746094 22.8C0.746094 10.2079 10.954 0 23.5461 0C36.1382 0 46.3461 10.2079 46.3461 22.8C46.3461 35.3921 36.1382 45.6 23.5461 45.6C10.954 45.6 0.746094 35.3921 0.746094 22.8Z" fill="#5B5B5B" fill-opacity="0.1"/>
<path fill-rule="evenodd" clip-rule="evenodd" d="M17.0856 11.8564C16.36 11.8564 15.6641 12.1447 15.151 12.6578C14.6379 13.1709 14.3496 13.8668 14.3496 14.5924V33.7445L19.1376 31.0085L23.9256 33.7445L28.7136 31.0085L33.5016 33.7445V14.5924C33.5016 13.8668 33.2133 13.1709 32.7003 12.6578C32.1871 12.1447 31.4913 11.8564 30.7656 11.8564H17.0856ZM20.5056 15.9604C19.9614 15.9604 19.4395 16.1766 19.0546 16.5615C18.6698 16.9463 18.4536 17.4682 18.4536 18.0125C18.4536 18.5567 18.6698 19.0786 19.0546 19.4635C19.4395 19.8482 19.9614 20.0645 20.5056 20.0645C21.0499 20.0645 21.5717 19.8482 21.9566 19.4635C22.3414 19.0786 22.5576 18.5567 22.5576 18.0125C22.5576 17.4682 22.3414 16.9463 21.9566 16.5615C21.5717 16.1766 21.0499 15.9604 20.5056 15.9604ZM28.9968 16.3613C28.7402 16.1048 28.3924 15.9607 28.0296 15.9607C27.6669 15.9607 27.3189 16.1048 27.0624 16.3613L18.8544 24.5693C18.7238 24.6954 18.6195 24.8464 18.5479 25.0133C18.4762 25.1803 18.4384 25.3597 18.4368 25.5414C18.4353 25.723 18.4699 25.9032 18.5387 26.0713C18.6074 26.2394 18.7091 26.3921 18.8375 26.5206C18.9659 26.649 19.1187 26.7506 19.2868 26.8194C19.4549 26.8882 19.635 26.9228 19.8167 26.9212C19.9983 26.9196 20.1778 26.8819 20.3447 26.8102C20.5116 26.7385 20.6626 26.6343 20.7888 26.5036L28.9968 18.2956C29.2532 18.0391 29.3973 17.6912 29.3973 17.3285C29.3973 16.9657 29.2532 16.6178 28.9968 16.3613ZM27.3456 22.8005C26.8014 22.8005 26.2795 23.0166 25.8946 23.4015C25.5098 23.7863 25.2936 24.3082 25.2936 24.8525C25.2936 25.3967 25.5098 25.9186 25.8946 26.3035C26.2795 26.6882 26.8014 26.9045 27.3456 26.9045C27.8899 26.9045 28.4117 26.6882 28.7966 26.3035C29.1814 25.9186 29.3976 25.3967 29.3976 24.8525C29.3976 24.3082 29.1814 23.7863 28.7966 23.4015C28.4117 23.0166 27.8899 22.8005 27.3456 22.8005Z" fill="#5F5F5F"/>
</svg>
