<svg width="47" height="47" viewBox="0 0 47 47" fill="none" xmlns="http://www.w3.org/2000/svg">
<path d="M0.746094 23.5598C0.746094 10.9677 10.954 0.759766 23.5461 0.759766C36.1382 0.759766 46.3461 10.9677 46.3461 23.5598C46.3461 36.1519 36.1382 46.3598 23.5461 46.3598C10.954 46.3598 0.746094 36.1519 0.746094 23.5598Z" fill="#5B5B5B" fill-opacity="0.1"/>
<path fill-rule="evenodd" clip-rule="evenodd" d="M32.039 19.5104L28.5495 22.4197C28.7201 23.1709 28.7201 23.9508 28.5495 24.702L32.039 27.609C32.6402 26.3439 32.952 24.9609 32.952 23.5603C32.952 22.1596 32.6402 20.7766 32.039 19.5115V19.5104ZM27.5965 32.0527L24.6872 28.562C23.936 28.7326 23.1561 28.7326 22.4049 28.562L19.4979 32.0515C20.763 32.6527 22.146 32.9646 23.5466 32.9646C24.9472 32.9646 26.3303 32.6527 27.5953 32.0515L27.5965 32.0527ZM15.0542 27.609L18.5449 24.6997C18.3743 23.9485 18.3743 23.1686 18.5449 22.4174L15.0553 19.5127C14.4542 20.7777 14.1423 22.1608 14.1423 23.5614C14.1423 24.962 14.4542 26.3451 15.0553 27.6101L15.0542 27.609ZM19.4979 15.0667L22.4072 18.5574C23.1584 18.3868 23.9383 18.3868 24.6895 18.5574L27.5965 15.0678C26.3314 14.4667 24.9484 14.1548 23.5477 14.1548C22.1471 14.1548 20.7641 14.4667 19.499 15.0678L19.4979 15.0667ZM29.3669 14.0863C30.1077 14.5425 30.7926 15.0839 31.4075 15.6994C32.0224 16.3136 32.5634 16.9977 33.0194 17.7377C34.0937 19.489 34.6624 21.5034 34.6624 23.558C34.6624 25.6125 34.0937 27.627 33.0194 29.3782C32.5632 30.1191 32.0218 30.8039 31.4063 31.4188C30.7921 32.0338 30.108 32.5748 29.368 33.0308C27.6166 34.1053 25.6019 34.6741 23.5472 34.6741C21.4924 34.6741 19.4778 34.1053 17.7263 33.0308C16.9863 32.5745 16.3022 32.0331 15.688 31.4177C15.0727 30.8035 14.5313 30.1194 14.0749 29.3794C13.0004 27.628 12.4316 25.6133 12.4316 23.5585C12.4316 21.5038 13.0004 19.4891 14.0749 17.7377C14.5313 16.9977 15.0726 16.3136 15.688 15.6994C16.3022 15.084 16.9863 14.5426 17.7263 14.0863C19.4776 13.012 21.4921 12.4434 23.5466 12.4434C25.6011 12.4434 27.6156 13.012 29.3669 14.0863ZM25.9651 21.1429C25.6082 20.7847 25.1759 20.5105 24.6997 20.3403C23.9543 20.075 23.1401 20.075 22.3946 20.3403C21.9184 20.5105 21.4862 20.7847 21.1292 21.1429C20.7576 21.5134 20.4908 21.9466 20.3267 22.4083C20.0613 23.1537 20.0613 23.9679 20.3267 24.7134C20.4908 25.1751 20.7576 25.6083 21.1292 25.9788C21.4997 26.3504 21.9329 26.6172 22.3946 26.7813C23.1379 27.0469 23.9564 27.0469 24.6997 26.7813C25.1759 26.6112 25.6082 26.337 25.9651 25.9788C26.3368 25.6083 26.6035 25.1751 26.7677 24.7134C27.0329 23.9679 27.0329 23.1538 26.7677 22.4083C26.5975 21.9321 26.3233 21.4998 25.9651 21.1429Z" fill="#5F5F5F"/>
</svg>
