<svg width="1440" height="1049" viewBox="0 0 1440 1049" fill="none" xmlns="http://www.w3.org/2000/svg">
<g opacity="0.12">
<path d="M258.863 0.322048L370.086 132.413L97.7757 267.574L97.998 268.522H208.253H208.368L208.472 268.471L403.829 172.969L486.613 268.35L486.763 268.522H486.991H586.909H587.996L587.289 267.697L474.696 136.323L579.551 84.2944L579.552 84.2942L748.035 0.447633L747.812 -0.5H636.179H636.062L635.957 -0.447814L467.129 83.3987L467.128 83.3993L440.947 96.4827L357.821 -0.325729L357.671 -0.5H357.441H259.246H258.171L258.863 0.322048Z" stroke="white"/>
<path d="M87.3015 833.215L87.4234 833.292H87.5673H160.756L146.404 856.895C146.403 856.895 146.403 856.896 146.403 856.897C144.867 859.38 143.345 861.31 141.882 862.657C140.427 863.998 139.066 864.73 137.838 864.899H-140.867C-143.196 864.899 -146.228 864.205 -150.012 863.132C-153.759 861.714 -157.148 859.948 -160.191 857.485C-163.224 855.032 -165.239 852.238 -166.586 848.737C-167.888 845.351 -167.269 841.575 -164.556 836.99C-164.556 836.989 -164.555 836.989 -164.555 836.988L-104.606 737.379L-104.604 737.375C-101.891 732.791 -98.1578 728.903 -92.7023 725.357C-87.2238 721.796 -81.3964 718.943 -75.5555 716.442C-69.3505 713.932 -63.8818 711.802 -58.4245 710.738C-52.8872 709.658 -49.1567 708.955 -46.8057 708.955H318.758H319.044L319.189 708.709L351.92 653.17L352.365 652.416H351.49H-47.1502C-55.4698 652.416 -65.8451 653.857 -77.575 656.369C-89.3173 658.883 -101.064 662.475 -113.156 667.864C-125.251 672.896 -136.652 679.365 -147.704 687.266C-158.783 695.187 -167.443 704.553 -174.026 715.362L-174.028 715.365L-259.473 857.972C-259.473 857.973 -259.474 857.973 -259.474 857.974C-266.052 868.776 -268.526 878.218 -267.119 886.267C-265.722 894.259 -261.876 901.173 -255.926 906.269C-250.011 911.334 -242.712 915.308 -234.034 917.835C-225.371 920.358 -216.71 921.438 -208.398 921.438H159.577C167.96 921.438 177.005 918.534 186.36 912.77C196.12 907.329 205.475 896.49 215.131 880.709L215.134 880.705L243.386 833.409L243.387 833.407L273.706 783.244L274.164 782.486H273.278H191.621H191.62L7.63354 782.127L5.8898 782.124L7.36679 783.051L87.3015 833.215Z" stroke="white"/>
<path d="M92.9993 319.797H92.7161L92.5704 320.04L59.494 375.221L59.0402 375.978H59.9229H425.486C427.122 375.978 430.15 376.669 433.593 377.742C437.341 379.161 440.732 380.928 443.777 383.391C446.836 385.865 449.164 388.652 450.158 392.099C451.141 395.509 450.508 399.306 447.797 403.887C447.797 403.888 447.796 403.888 447.796 403.889L387.502 504.215L387.501 504.218C384.794 508.791 380.724 512.682 375.255 516.236C369.768 519.802 364.281 522.656 358.448 525.154C352.593 527.661 347.12 529.793 342.004 530.857C336.805 531.938 333.427 532.638 331.425 532.638H52.064C51.4743 532.476 51.0814 532.233 50.8323 531.934C50.5788 531.629 50.431 531.213 50.431 530.63C50.431 529.425 51.0597 527.645 52.432 525.146L123.059 407.626L123.794 406.402L122.456 406.9L28.0503 442.015L27.9003 442.071L27.8106 442.203L-43.5105 547.549L-43.5169 547.558L-43.5229 547.568C-48.3598 555.473 -51.486 562.326 -52.8813 567.404L-52.8814 567.404L-52.8835 567.412C-54.2687 572.815 -54.6348 576.845 -53.9219 580.182L-53.919 580.195C-53.2013 583.18 -51.388 585.851 -48.0929 586.997C-45.2765 588.094 -41.772 588.819 -37.5837 588.819H330.736C338.703 588.819 348.731 587.739 360.472 585.225C372.222 582.709 384.31 578.757 396.392 573.731L396.399 573.729C408.831 568.341 420.577 561.875 431.634 553.969C442.713 546.048 451.374 536.682 457.956 525.873L457.958 525.87L543.404 383.263C549.981 372.463 552.463 363.01 550.701 354.947C548.958 346.971 545.117 340.062 539.167 334.966C533.248 329.897 525.602 325.925 516.931 323.4L516.926 323.399C507.925 320.878 499.611 319.797 491.639 319.797H92.9993Z" stroke="white"/>
<path d="M1019.5 -393L1363.1 -194.625L1164.72 148.971L1019.5 -393Z" stroke="white" stroke-linejoin="round"/>
<path d="M966.346 492.566L821.125 -49.4042L1164.72 148.971L966.346 492.566Z" stroke="white" stroke-linejoin="round"/>
<path d="M1164.72 148.971L1508.32 347.346L1309.94 690.941L1164.72 148.971Z" stroke="white" stroke-linejoin="round"/>
<path d="M1363.1 -194.625L1706.69 3.7501L1508.32 347.346L1363.1 -194.625Z" stroke="white" stroke-linejoin="round"/>
<path d="M966.346 492.567L622.75 294.192L424.375 637.787L966.346 492.567Z" stroke="white" stroke-linejoin="round"/>
<path d="M226 981.383L424.375 637.787L569.596 1179.76L226 981.383Z" stroke="white" stroke-linejoin="round"/>
<path d="M767.971 836.162L1111.57 1034.54L569.596 1179.76L767.971 836.162Z" stroke="white" stroke-linejoin="round"/>
<path d="M1138.14 591.755L867.158 664.365L1038.96 763.553L1138.14 591.755Z" stroke="white" stroke-linejoin="round"/>
<path d="M767.971 836.162L867.158 664.364L939.769 935.35L767.971 836.162Z" stroke="white" stroke-linejoin="round"/>
<path d="M1038.96 763.552L1111.57 1034.54L1210.75 862.739L1038.96 763.552Z" stroke="white" stroke-linejoin="round"/>
<path d="M1210.75 862.74L1309.94 690.942L1138.14 591.755L1210.75 862.74Z" stroke="white" stroke-linejoin="round"/>
<path d="M1309.94 690.942L1455.16 1232.91L1111.57 1034.54L1309.94 690.942Z" stroke="white" stroke-linejoin="round"/>
<path d="M1455.16 1232.91L1111.57 1034.54L913.191 1378.13L1455.16 1232.91Z" stroke="white" stroke-linejoin="round"/>
<path d="M1409.13 519.145L1508.32 347.347L1680.11 446.534L1409.13 519.145Z" stroke="white" stroke-linejoin="round"/>
<path d="M1309.94 690.941L1580.93 618.331L1481.74 790.129L1309.94 690.941Z" stroke="white" stroke-linejoin="round"/>
</g>
</svg>
