<svg width="164" height="25" viewBox="0 0 164 25" fill="none" xmlns="http://www.w3.org/2000/svg">
<path d="M66.0357 0.171875H103.428C104.171 0.171875 104.947 0.268829 105.787 0.495055C106.595 0.721281 107.306 1.07678 107.855 1.52923C108.405 1.98168 108.76 2.59572 108.922 3.30672C109.083 4.01771 108.857 4.85798 108.243 5.82752L100.228 18.6901C99.6141 19.6596 98.8062 20.4999 97.772 21.2109C96.7378 21.9219 95.639 22.5036 94.4755 22.9884C93.3444 23.4408 92.2133 23.7963 91.1145 24.0225C90.0157 24.2488 89.0784 24.3457 88.3351 24.3457H53.7872C53.3994 24.3457 53.0762 24.2811 52.8177 24.1841C52.5268 24.0872 52.3652 23.861 52.3006 23.6024C52.236 23.3115 52.2683 22.956 52.3975 22.4713C52.5268 22.0188 52.8177 21.4048 53.2701 20.6938L59.9599 11.1923L68.8151 8.02514L62.1899 18.6254C61.9313 19.0779 61.9313 19.3041 62.1899 19.3688H88.3998C88.5937 19.3688 88.9169 19.3041 89.4016 19.2072C89.8864 19.1102 90.4035 18.9163 90.9529 18.6901C91.5023 18.4639 92.0194 18.2053 92.5365 17.8821C93.0536 17.5589 93.4414 17.2034 93.6999 16.7833L99.3556 7.73428C99.6141 7.31415 99.6787 6.95865 99.5818 6.63547C99.4848 6.31229 99.2586 6.05375 98.9678 5.82752C98.6769 5.60129 98.3537 5.4397 97.9982 5.31043C97.675 5.21348 97.3842 5.14884 97.2226 5.14884H62.9332L66.0357 0.171875Z" fill="white"/>
<path d="M35.4952 12.4527L46.0955 24.3457H36.7233L28.9347 15.7168L10.5781 24.3457H0.236328L25.8322 12.1295L15.3611 0.171875H24.5718L32.3927 8.93005L34.8812 7.73428L50.717 0.171875H61.188L45.3845 7.73428L35.4952 12.4527Z" fill="white"/>
<path d="M115.159 16.7833C114.901 17.2034 114.836 17.5589 114.965 17.8821C115.094 18.2053 115.288 18.4639 115.579 18.6901C115.87 18.9163 116.193 19.0779 116.549 19.2072C116.904 19.3041 117.195 19.3688 117.421 19.3688H143.567C143.825 19.3364 144.116 19.0779 144.407 18.6254L145.797 16.4278H138.848L131.35 11.9033L148.608 11.9356H156.268L153.424 16.4601L150.773 20.7261C149.869 22.1481 148.996 23.1176 148.091 23.6024C147.218 24.1195 146.378 24.378 145.603 24.378H111.087C110.311 24.378 109.503 24.2811 108.695 24.0549C107.888 23.8286 107.209 23.4731 106.659 23.0207C106.11 22.5682 105.755 21.9542 105.625 21.2432C105.496 20.5322 105.722 19.6919 106.336 18.7224L114.351 5.85984C114.965 4.8903 115.773 4.05003 116.807 3.33904C117.841 2.62804 118.908 2.04632 120.039 1.59387C121.17 1.1091 122.269 0.785916 123.368 0.55969C124.467 0.333465 125.436 0.204193 126.212 0.204193H163.604L160.534 5.21348H126.244C126.018 5.21348 125.662 5.27812 125.145 5.37507C124.628 5.47202 124.111 5.66593 123.529 5.89216C122.98 6.11838 122.431 6.37693 121.914 6.70011C121.396 7.02329 121.041 7.37878 120.782 7.79892L115.159 16.7833Z" fill="white"/>
</svg>
