<svg width="57" height="57" viewBox="0 0 57 57" fill="none" xmlns="http://www.w3.org/2000/svg">
<path d="M8.34146 34.061C8.22338 33.978 8.14501 33.8995 8.05316 33.8233C8.05316 33.8143 8.05314 33.8031 8.0269 33.7986C7.86945 33.6529 7.75131 33.5094 7.64634 33.3659C7.75131 33.5094 7.89571 33.6574 8.05316 33.8031C8.14501 33.8883 8.22338 33.9758 8.34146 34.061Z" fill="#C2AE8C"/>
<path d="M18.7683 47.2683C18.5304 47.0544 18.3018 46.8272 18.0732 46.5732C18.2678 46.7871 18.4687 46.9809 18.6695 47.1613C18.7035 47.2015 18.7312 47.2349 18.7683 47.2683Z" fill="#C2AE8C"/>
<path d="M32.6707 47.2683C32.4403 47.2683 32.2022 47.2683 31.9756 47.2683C31.9907 47.2683 32.0171 47.2683 32.0322 47.2683C32.1342 47.2683 32.2477 47.2683 32.3496 47.2683C32.4592 47.2683 32.5687 47.2683 32.6707 47.2683Z" fill="#C2AE8C"/>
<path d="M34.7561 45.878C34.7561 46.1417 34.7561 46.3574 34.7561 46.5732C34.7561 46.5492 34.7561 46.5133 34.7561 46.4653C34.7561 46.3575 34.7561 46.2496 34.7561 46.1417C34.7561 46.0578 34.7561 45.9619 34.7561 45.878Z" fill="#C2AE8C"/>
<path d="M39.622 41.7073C39.622 41.9482 39.622 42.1753 39.622 42.4024C39.622 42.3405 39.622 42.2648 39.622 42.1891C39.622 42.0239 39.622 41.8587 39.622 41.7073Z" fill="#C2AE8C"/>
<path d="M42.4024 36.1463C42.4024 36.3021 42.4024 36.446 42.4024 36.6018C42.4024 36.6737 42.4024 36.7696 42.4024 36.8415C42.4024 36.6018 42.4024 36.386 42.4024 36.1463Z" fill="#C2AE8C"/>
<path d="M35.062 21.3492C32.5664 18.7889 29.2528 17.378 25.7206 17.378C22.1913 17.378 18.8719 18.7889 16.3792 21.3492C11.2232 26.6329 11.2232 35.233 16.3792 40.5166C18.8719 43.0801 22.1913 44.4878 25.7206 44.4878C29.2528 44.4878 32.5664 43.0801 35.062 40.5166C40.2151 35.233 40.2151 26.6329 35.062 21.3492ZM21.1668 26.2579C20.8073 26.6329 20.3218 26.8419 19.8035 26.8419C19.2822 26.8419 18.7999 26.6329 18.4344 26.2579C18.0659 25.889 17.8622 25.385 17.8622 24.8594C17.8622 24.3276 18.0659 23.8297 18.4344 23.4547C19.1595 22.7016 20.4418 22.7016 21.1668 23.4547C21.9218 24.2293 21.9218 25.4864 21.1668 26.2579ZM18.4344 35.5988C19.1595 34.8519 20.4418 34.8519 21.1668 35.5988C21.9218 36.3795 21.9218 37.6366 21.1668 38.4112C20.8073 38.7831 20.3218 38.9921 19.8035 38.9921C19.2822 38.9921 18.7999 38.7831 18.4344 38.4112C18.0659 38.0392 17.8622 37.5321 17.8622 37.0065C17.8622 36.4748 18.0659 35.9799 18.4344 35.5988ZM21.005 30.9298C21.005 29.6389 21.4962 28.4248 22.389 27.5119C23.2818 26.5991 24.4593 26.095 25.7206 26.095C26.9759 26.095 28.1623 26.5991 29.0521 27.5119C29.9389 28.4248 30.4303 29.6389 30.4303 30.9298C30.4303 32.2208 29.9389 33.438 29.0521 34.3478C28.1623 35.2606 26.9759 35.7647 25.7206 35.7647C24.4593 35.7647 23.2818 35.2606 22.389 34.3478C21.4962 33.438 21.005 32.2208 21.005 30.9298ZM29.7053 24.8594C29.7053 24.3276 29.9059 23.8297 30.2714 23.4547C31.0024 22.7016 32.2818 22.7016 33.0128 23.4547C33.3724 23.8297 33.576 24.3276 33.576 24.8594C33.576 25.3911 33.3724 25.889 33.0128 26.2579C32.6443 26.6329 32.1619 26.8419 31.6436 26.8419C31.1253 26.8419 30.6399 26.6329 30.2714 26.2579C29.9059 25.889 29.7053 25.3911 29.7053 24.8594ZM33.0128 38.4112C32.6443 38.7831 32.1619 38.9921 31.6436 38.9921C31.1253 38.9921 30.6399 38.7831 30.2714 38.4112C29.9059 38.0392 29.7053 37.5321 29.7053 37.0065C29.7053 36.4748 29.9059 35.9799 30.2714 35.5988C31.0024 34.8519 32.2758 34.8519 33.0128 35.5988C33.7648 36.3795 33.7648 37.6366 33.0128 38.4112Z" fill="#C2AE8C"/>
<path d="M40.3171 41.0122C40.2572 41.0919 40.1833 41.1743 40.1059 41.254C39.9405 41.4436 39.7575 41.6304 39.5604 41.8145C39.4654 41.9106 39.3704 42.0013 39.2649 42.092C39.1628 42.1991 39.043 42.3008 38.9268 42.4024C39.0606 42.2706 39.205 42.1414 39.3458 42.0068C39.6837 41.6853 40.0109 41.3584 40.3171 41.0122Z" fill="#C2AE8C"/>
<path d="M42.4024 38.2317C42.3421 38.3546 42.2704 38.4775 42.1912 38.5975C42.1045 38.7461 42.0064 38.8918 41.9046 39.0347C41.8103 39.1747 41.7085 39.3233 41.6067 39.4662C41.4257 39.7091 41.241 39.952 41.0374 40.1892C40.9959 40.2606 40.9356 40.3235 40.879 40.3892C40.8413 40.4292 40.8074 40.4635 40.7847 40.4978C40.7244 40.575 40.664 40.6464 40.5999 40.7179C40.5056 40.815 40.4151 40.9179 40.3171 41.0122C40.4717 40.8465 40.6226 40.6721 40.7772 40.4921C40.7923 40.4721 40.8035 40.4635 40.8186 40.4407C40.8186 40.4407 40.8186 40.4349 40.8262 40.4349C40.8413 40.4092 40.8714 40.3835 40.8978 40.3578C40.9129 40.3378 40.9355 40.3149 40.9619 40.2835L41.0147 40.2035C41.0826 40.132 41.1391 40.0577 41.1994 39.972C41.2145 39.9606 41.2259 39.9406 41.2334 39.9291C41.2485 39.9206 41.2599 39.9149 41.2485 39.9091C41.3956 39.7291 41.5388 39.5405 41.6671 39.3576C41.8179 39.1519 41.9649 38.9404 42.1007 38.7289C42.1761 38.6032 42.2515 38.4775 42.327 38.3546C42.3533 38.3174 42.376 38.2717 42.4024 38.2317Z" fill="#C2AE8C"/>
<path d="M42.4024 36.1463C42.4024 36.3021 42.4024 36.446 42.4024 36.6018C42.4024 36.6737 42.4024 36.7696 42.4024 36.8415C42.4024 36.6018 42.4024 36.386 42.4024 36.1463Z" fill="#C2AE8C"/>
<path d="M43.0976 35.4512C43.0976 35.6394 43.0976 35.8223 43.0976 36.0052C43.0976 36.0523 43.0976 36.0941 43.0976 36.1463C43.0976 35.9216 43.0976 35.6864 43.0976 35.4512Z" fill="#C2AE8C"/>
<path d="M31.2805 47.9634C31.1968 47.9634 31.1167 47.9634 31.0366 47.9634C30.8874 47.9634 30.7346 47.9634 30.5854 47.9634C30.822 47.9634 31.0512 47.9634 31.2805 47.9634Z" fill="#C2AE8C"/>
<path d="M31.2805 47.2683C31.2805 47.3697 31.2805 47.4421 31.2805 47.5435C31.2805 47.6593 31.2805 47.8186 31.2805 47.9634C31.2805 47.7317 31.2805 47.5 31.2805 47.2683Z" fill="#C2AE8C"/>
<path d="M32.6707 47.2683C32.6688 47.2683 32.6631 47.2683 32.6593 47.2683C32.5418 47.2683 32.4204 47.2683 32.3049 47.2683C32.2317 47.2683 32.1566 47.2683 32.0796 47.2683C32.0449 47.2683 32.0083 47.2683 31.9756 47.2683C32.0969 47.2683 32.2163 47.2683 32.3337 47.2683C32.3857 47.2683 32.4436 47.2683 32.4956 47.2683C32.5553 47.2683 32.611 47.2683 32.6707 47.2683Z" fill="#C2AE8C"/>
<path d="M34.7561 45.878C34.6572 45.944 34.5489 45.9979 34.4469 46.0518C34.3193 46.1267 34.1854 46.1927 34.0547 46.2526C33.959 46.3005 33.8761 46.3485 33.7805 46.3874C33.7326 46.4174 33.6752 46.4413 33.6242 46.4623C33.5381 46.5013 33.4519 46.5432 33.3659 46.5732C33.5604 46.4893 33.7454 46.4024 33.9335 46.3065C34.1185 46.2136 34.297 46.1178 34.4852 46.0249C34.533 45.9979 34.5776 45.9709 34.6286 45.944C34.6732 45.923 34.7115 45.899 34.7561 45.878Z" fill="#C2AE8C"/>
<path d="M36.1463 45.1829C36.0821 45.2296 36.0042 45.2711 35.9298 45.3048C35.8656 45.3463 35.798 45.3801 35.7303 45.4112C35.6627 45.4501 35.5915 45.4864 35.5171 45.5149C35.4968 45.5331 35.4631 45.5435 35.4428 45.5564C35.2162 45.6731 34.9861 45.7821 34.7561 45.878C35.047 45.7432 35.3209 45.6083 35.6017 45.4708C35.7843 45.3749 35.9637 45.2815 36.1463 45.1829Z" fill="#C2AE8C"/>
<path d="M36.8415 45.1829C36.7095 45.1829 36.5818 45.1829 36.4411 45.1829C36.3443 45.1829 36.2475 45.1829 36.1463 45.1829C36.3751 45.1829 36.6127 45.1829 36.8415 45.1829Z" fill="#C2AE8C"/>
<path d="M8.34146 34.061C8.22338 33.978 8.14501 33.8995 8.05316 33.8233C8.05316 33.8143 8.05314 33.8031 8.0269 33.7986C7.86945 33.6529 7.75131 33.5094 7.64634 33.3659C7.75131 33.5094 7.89571 33.6574 8.05316 33.8031C8.14501 33.8883 8.22338 33.9758 8.34146 34.061Z" fill="#C2AE8C"/>
<path d="M11.8171 41.7073H11.8062C11.6414 41.5318 11.4909 41.3564 11.3368 41.1718C11.1828 40.9872 11.0324 40.8057 10.8927 40.6211C10.7816 40.488 10.6777 40.3398 10.5702 40.1976C10.3696 39.9222 10.176 39.6409 10.0004 39.3625C9.90369 39.2203 9.81411 39.0721 9.73171 38.9268C9.78187 39.0085 9.83926 39.0993 9.89301 39.181C10.1116 39.535 10.3552 39.889 10.6024 40.2278C10.8031 40.4971 11.0215 40.7694 11.2401 41.0356C11.4264 41.2686 11.62 41.4925 11.8171 41.7073Z" fill="#C2AE8C"/>
<path d="M13.9024 44.4878C13.8708 44.4603 13.8428 44.4328 13.8183 44.4093C13.6111 44.205 13.4039 44.0008 13.2073 43.7927H13.2214C13.4461 44.0283 13.6707 44.2482 13.9024 44.4878Z" fill="#C2AE8C"/>
<path d="M15.2927 45.1829C15.159 45.1231 15.0254 45.0632 14.8971 45.0033C14.5655 44.8404 14.2445 44.684 13.9343 44.5177C13.9343 44.5111 13.9184 44.5111 13.9077 44.5044C13.9077 44.4978 13.9078 44.4978 13.9024 44.4878C13.9666 44.5277 14.0414 44.5643 14.1163 44.5942C14.4104 44.7572 14.7258 44.9069 15.036 45.0565C15.1216 45.1031 15.2071 45.1397 15.2927 45.1829Z" fill="#C2AE8C"/>
<path d="M18.7683 47.2683C18.6746 47.2288 18.5702 47.1866 18.4765 47.1415C18.2703 47.0513 18.0721 46.9555 17.874 46.8484C17.8151 46.823 17.7589 46.792 17.7 46.761C17.6089 46.716 17.5232 46.6737 17.4402 46.6201C17.4 46.5948 17.3518 46.5694 17.3009 46.5384C17.2875 46.5328 17.2769 46.5243 17.2662 46.5131C17.2554 46.5074 17.2474 46.5074 17.234 46.5018C17.234 46.4933 17.2314 46.4933 17.2314 46.4933C17.2126 46.4792 17.1939 46.4764 17.1752 46.4623C17.1162 46.437 17.0627 46.406 17.0065 46.3665C16.9047 46.3158 16.803 46.2538 16.7066 46.189C16.562 46.1016 16.4174 46.0058 16.2781 45.9184C16.1951 45.8536 16.104 45.7916 16.0183 45.7296C15.9648 45.6958 15.9167 45.6592 15.8631 45.6282C15.6891 45.5014 15.5177 45.3689 15.3409 45.228C15.3195 45.2167 15.3087 45.2027 15.2927 45.1829C15.4774 45.3295 15.6703 45.4676 15.8631 45.6141C15.9381 45.6648 16.0024 45.7099 16.0747 45.7606C16.147 45.8057 16.2138 45.8536 16.2861 45.8987C16.3129 45.9241 16.345 45.9438 16.3745 45.9607C16.5244 46.065 16.6744 46.1636 16.8323 46.2538C17.0064 46.3637 17.1885 46.4623 17.3599 46.5638C17.5447 46.6652 17.7267 46.761 17.9088 46.854C17.9329 46.8709 17.9597 46.8879 17.9811 46.8935C18.1391 46.9696 18.3025 47.0513 18.4685 47.1274C18.5702 47.1725 18.6692 47.2232 18.7683 47.2683Z" fill="#C2AE8C"/>
<path d="M20.1585 47.9634C20.0131 47.9124 19.8649 47.8377 19.7194 47.771C19.6187 47.7278 19.5096 47.6728 19.4117 47.6178C19.311 47.5746 19.2019 47.5157 19.104 47.4607C18.9893 47.3979 18.883 47.3351 18.7683 47.2683C18.869 47.3272 18.9782 47.3783 19.0845 47.4332C19.2551 47.5314 19.4312 47.6178 19.6074 47.7003C19.6746 47.7356 19.7446 47.771 19.8145 47.8063C19.8816 47.8377 19.9571 47.877 20.027 47.9006C20.069 47.9281 20.1138 47.9438 20.1585 47.9634Z" fill="#C2AE8C"/>
<path d="M38.9215 18.0732C38.6973 17.8348 38.4673 17.605 38.2317 17.378C38.3509 17.4929 38.4815 17.605 38.5922 17.7199C38.6887 17.8147 38.7796 17.9066 38.8619 18.0042C38.8874 18.0243 38.9072 18.0416 38.9129 18.0617C38.9242 18.0674 38.9328 18.0674 38.9215 18.0732Z" fill="#C2AE8C"/>
<path d="M39.622 19.4634C39.3848 19.2301 39.1585 19.0064 38.9268 18.7683C38.9875 18.8207 39.0372 18.8683 39.0868 18.9207C39.2743 19.1016 39.4565 19.2777 39.622 19.4634Z" fill="#C2AE8C"/>
<path d="M40.3171 20.1585C40.0893 19.9298 39.8617 19.6966 39.622 19.4634C39.8198 19.6249 39.9815 19.7998 40.1374 19.9702C40.2093 20.0285 40.2811 20.0913 40.3171 20.1585Z" fill="#C2AE8C"/>
<path d="M41.0122 21.5488C40.7973 21.0702 40.5648 20.6087 40.3171 20.1585C40.3916 20.2753 40.4509 20.3893 40.5101 20.5118C40.5211 20.5203 40.5254 20.5203 40.521 20.5232C40.5539 20.5773 40.5802 20.6286 40.6043 20.6856C40.6175 20.7055 40.6285 20.7226 40.635 20.7482C40.7008 20.885 40.771 21.0132 40.8346 21.1528C40.8412 21.1585 40.8411 21.1585 40.8411 21.1642C40.8806 21.2496 40.9201 21.3266 40.9574 21.4092C40.9749 21.4548 40.9947 21.5003 41.0122 21.5488Z" fill="#C2AE8C"/>
<path d="M41.7073 22.2439C41.4731 22.019 41.2464 21.7778 41.0122 21.5488C41.0854 21.5938 41.1291 21.651 41.173 21.7001C41.2243 21.7328 41.261 21.7696 41.2902 21.8064C41.3561 21.88 41.444 21.9536 41.5025 22.0272C41.5904 22.1008 41.6561 22.1744 41.7073 22.2439Z" fill="#C2AE8C"/>
<path d="M41.7073 22.939C41.7073 22.8183 41.7073 22.7043 41.7073 22.5881C41.7073 22.4719 41.7073 22.3557 41.7073 22.2439C41.7073 22.3154 41.7073 22.3914 41.7073 22.4674C41.7073 22.6216 41.7073 22.7781 41.7073 22.939Z" fill="#C2AE8C"/>
<path d="M8.34146 34.061C8.29662 34.0538 8.29658 34.0538 8.29658 34.0538C8.02755 33.8221 7.82569 33.594 7.64634 33.3659C7.82569 33.594 8.07243 33.8293 8.34146 34.061Z" fill="#C2AE8C"/>
<path d="M31.2805 47.2683C31.2805 47.3697 31.2805 47.4421 31.2805 47.5435C31.2805 47.6593 31.2805 47.8186 31.2805 47.9634C31.2805 47.7317 31.2805 47.5 31.2805 47.2683Z" fill="#C2AE8C"/>
<path d="M15.9878 45.878C15.9262 45.8379 15.8642 45.7979 15.8026 45.731C15.6443 45.5439 15.4687 45.3567 15.2927 45.1829C15.539 45.4236 15.7502 45.6374 15.9878 45.878Z" fill="#C2AE8C"/>
<path d="M17.378 46.5732C17.3428 46.5289 17.2933 46.4847 17.2545 46.4594C17.2404 46.4468 17.2298 46.4468 17.2121 46.4341C17.2121 46.4152 17.2087 46.4152 17.2087 46.4152C17.184 46.3836 17.1593 46.3773 17.1346 46.3457C16.9864 46.194 16.8311 46.0487 16.6829 45.878C16.9123 46.1245 17.1522 46.3457 17.378 46.5732Z" fill="#C2AE8C"/>
<path d="M18.0732 46.5732C17.9274 46.5732 17.7951 46.5732 17.6493 46.5732C17.5611 46.5732 17.4696 46.5732 17.378 46.5732C17.612 46.5732 17.8426 46.5732 18.0732 46.5732Z" fill="#C2AE8C"/>
<path d="M18.7683 47.2683C18.7339 47.2515 18.6995 47.2097 18.6575 47.1762C18.459 46.9835 18.2641 46.7825 18.0732 46.5732C18.2985 46.7993 18.5315 47.0422 18.7683 47.2683Z" fill="#C2AE8C"/>
<path d="M20.1585 47.2683C19.9987 47.2683 19.8463 47.2683 19.6902 47.2683C19.6121 47.2683 19.5378 47.2683 19.4634 47.2683C19.6902 47.2683 19.9243 47.2683 20.1585 47.2683Z" fill="#C2AE8C"/>
<path d="M41.0122 40.3171C40.921 40.4202 40.8298 40.5157 40.7443 40.6188C40.6019 40.7487 40.4652 40.8862 40.3171 41.0122C40.5506 40.7907 40.7786 40.5577 41.0122 40.3171Z" fill="#C2AE8C"/>
<path d="M41.0122 39.622C41.0122 39.761 41.0122 39.8897 41.0122 40.0133C41.0122 40.0751 41.0122 40.1266 41.0122 40.1832C41.0122 40.2398 41.0122 40.281 41.0122 40.3171C41.0122 40.2244 41.0122 40.1266 41.0122 40.039C41.0122 39.9103 41.0122 39.7764 41.0122 39.622Z" fill="#C2AE8C"/>
<path d="M42.4024 36.1463C42.4024 36.3021 42.4024 36.446 42.4024 36.6018C42.4024 36.6737 42.4024 36.7696 42.4024 36.8415C42.4024 36.6018 42.4024 36.386 42.4024 36.1463Z" fill="#C2AE8C"/>
<path d="M13.2073 43.7927H13.1982C13.1164 43.6784 13.0346 43.5826 12.9529 43.4714C12.5463 42.9153 12.1669 42.319 11.8171 41.7073H11.8239C12.2487 42.4519 12.7076 43.1439 13.2073 43.7927Z" fill="#C2AE8C"/>
<path d="M41.7073 22.939C41.7073 22.7611 41.7073 22.5931 41.7073 22.4218C41.7073 22.3625 41.7073 22.3032 41.7073 22.2439C41.7073 22.4712 41.7073 22.7018 41.7073 22.939Z" fill="#C2AE8C"/>
<path d="M43.207 35.212C43.2008 35.246 43.1918 35.2862 43.1826 35.3233C43.1704 35.3666 43.1581 35.4006 43.1489 35.4408C43.1397 35.4686 43.1337 35.5026 43.1215 35.5305C43.1153 35.5521 43.1154 35.5706 43.1001 35.5923C43.0818 35.7036 43.0543 35.8118 43.0176 35.92C43.0115 35.9478 43.0054 35.9726 42.9931 36.0035C42.984 36.0097 42.9839 36.0097 42.9839 36.019C42.9778 36.0313 42.9778 36.0468 42.9687 36.0592C42.9198 36.2261 42.8679 36.3931 42.8129 36.56C42.7976 36.6002 42.7853 36.6373 42.7792 36.6775C42.767 36.6961 42.7578 36.7208 42.7517 36.7394V36.7455C42.709 36.8537 42.6754 36.962 42.6357 37.0671C42.5929 37.2 42.5439 37.3175 42.492 37.4505C42.4828 37.4536 42.4829 37.469 42.4829 37.4752V37.4845C42.4829 37.4907 42.4768 37.4907 42.4768 37.4968C42.4523 37.5525 42.4339 37.6143 42.4095 37.6731C42.4095 37.6885 42.4004 37.6916 42.3881 37.704C42.3515 37.8153 42.3025 37.9235 42.2506 38.0317C42.2353 38.0596 42.2293 38.0905 42.2079 38.1152C42.159 38.2482 42.1009 38.3811 42.0368 38.511C41.9665 38.6717 41.887 38.8294 41.8045 38.984C41.7281 39.1355 41.6455 39.2963 41.563 39.4509C41.4164 39.7137 41.2667 39.9765 41.1017 40.2331C41.0681 40.3104 41.0192 40.3784 40.9734 40.4495C40.9428 40.4928 40.9153 40.5299 40.897 40.567C40.8481 40.6505 40.7992 40.7278 40.7472 40.8051C40.6708 40.9102 40.5975 41.0215 40.518 41.1235C40.4661 41.2132 40.4019 41.306 40.3347 41.3956C40.191 41.609 40.0322 41.8192 39.8611 42.0263C39.7786 42.1346 39.6961 42.2366 39.6045 42.3386C39.5159 42.4592 39.4118 42.5736 39.311 42.688C39.2896 42.7066 39.2683 42.7282 39.2561 42.7498C39.2561 42.756 39.2499 42.756 39.2407 42.7653V42.7715C39.2377 42.7777 39.2377 42.7777 39.2377 42.7777C39.2133 42.8055 39.1949 42.8271 39.1643 42.8488C39.1368 42.8766 39.1124 42.9106 39.0818 42.9353C39.0696 42.9632 39.0421 42.9941 39.0115 43.0219C38.9535 43.0745 38.9047 43.1332 38.8558 43.1889C38.8436 43.2012 38.8314 43.2136 38.8222 43.2291C38.8222 43.2291 38.81 43.2352 38.81 43.2445C38.7886 43.2631 38.7764 43.2847 38.7519 43.3064V49.8796H36.6955V45.1614C36.6038 45.2295 36.5151 45.3006 36.4174 45.3624C36.3501 45.4181 36.2829 45.4675 36.2127 45.5077C36.1546 45.5634 36.0843 45.6129 36.0171 45.653C35.959 45.7025 35.8979 45.7427 35.8368 45.7798C35.7757 45.8262 35.7114 45.8695 35.6442 45.9035C35.6259 45.9251 35.5954 45.9375 35.5771 45.953C35.3723 46.0921 35.1645 46.2219 34.9567 46.3363C34.8619 46.4044 34.7581 46.46 34.6604 46.5157C34.5381 46.593 34.4098 46.661 34.2845 46.7228C34.1929 46.7723 34.1134 46.8218 34.0218 46.8619C33.9759 46.8929 33.9209 46.9176 33.872 46.9392C33.7895 46.9794 33.707 47.0227 33.6245 47.0536C33.5083 47.1124 33.3923 47.168 33.2701 47.2299C33.2395 47.2453 33.2058 47.2577 33.1722 47.2732C33.1569 47.2855 33.1386 47.2948 33.1233 47.301C33.1111 47.3072 33.0958 47.3133 33.0836 47.3133C33.0744 47.3133 33.0684 47.3134 33.0623 47.3195C33.0531 47.3195 33.053 47.3288 33.053 47.3288C33.05 47.335 33.0409 47.3412 33.0348 47.3412C32.8484 47.4247 32.6558 47.5019 32.4725 47.5762C32.3563 47.6256 32.2372 47.6689 32.115 47.7122C32.06 47.7307 32.0019 47.7524 31.95 47.7647C31.9163 47.7802 31.8735 47.7926 31.843 47.808C31.8277 47.8142 31.8063 47.8204 31.7911 47.8204C31.7452 47.8421 31.6934 47.8575 31.6475 47.8792C31.5589 47.9039 31.4671 47.9379 31.3724 47.9688C31.3021 47.9966 31.2349 48.0152 31.1677 48.0368C31.0424 48.0801 30.9141 48.1141 30.7889 48.1481C30.3977 48.2564 30.0005 48.3553 29.5941 48.448C29.5452 48.4542 29.4933 48.4666 29.4444 48.4759C29.4291 48.4821 29.4107 48.4821 29.3894 48.4882C29.258 48.5161 29.1204 48.5439 28.9829 48.5655H28.9646C28.931 48.5717 28.8943 48.581 28.8546 48.5841C28.8332 48.5903 28.8056 48.5903 28.7751 48.5995C28.6956 48.615 28.6132 48.6274 28.5246 48.6428C28.4757 48.649 28.4208 48.6552 28.3749 48.6614C28.1671 48.6923 27.9532 48.7201 27.7454 48.7356H27.7271C27.4674 48.7665 27.2045 48.7881 26.9387 48.8036C26.9051 48.8036 26.8624 48.8098 26.8226 48.8098C26.6698 48.816 26.5109 48.816 26.3611 48.8191L21.6432 53.5959L20.1827 52.1211L23.5927 48.6737C23.1252 48.615 22.6607 48.5346 22.1993 48.4388C21.9579 48.3831 21.7196 48.3244 21.4782 48.2656C21.2093 48.2038 20.9435 48.1265 20.6746 48.0368C20.5157 47.9966 20.3538 47.9379 20.1949 47.8853C20.0849 47.8513 19.9657 47.808 19.8588 47.7647C19.7488 47.7307 19.6296 47.6844 19.5226 47.6411C19.3973 47.5916 19.2812 47.5421 19.1559 47.4896C19.0489 47.4463 18.9298 47.3999 18.8229 47.3504C18.5876 47.2515 18.3615 47.1464 18.1353 47.0289C18.0681 47.0011 18.004 46.9671 17.9368 46.9331C17.8329 46.8836 17.735 46.8372 17.6403 46.7785C17.5945 46.7506 17.5394 46.7228 17.4814 46.6888C17.4661 46.6826 17.4539 46.6733 17.4417 46.661C17.4295 46.6548 17.4203 46.6548 17.405 46.6486C17.405 46.6393 17.402 46.6393 17.402 46.6393C17.3806 46.6239 17.3592 46.6208 17.3379 46.6053C17.2706 46.5775 17.2096 46.5435 17.1454 46.5002C17.0293 46.4445 16.9131 46.3765 16.8031 46.3054C16.6381 46.2096 16.4731 46.1044 16.3142 46.0086C16.1583 45.9035 15.9995 45.8015 15.8406 45.6901C15.642 45.551 15.4464 45.4057 15.2447 45.2511C15.1469 45.18 15.0583 45.112 14.9636 45.0347C14.7742 44.8832 14.5907 44.7379 14.4135 44.5833C14.4135 44.5771 14.4044 44.5771 14.3983 44.5709C14.3647 44.54 14.331 44.5153 14.2974 44.4751C14.276 44.4565 14.2609 44.4503 14.2486 44.4318C14.2425 44.4256 14.2271 44.4101 14.221 44.4101C14.1935 44.3885 14.1692 44.3669 14.1478 44.3483C13.9675 44.1875 13.7871 44.0267 13.616 43.8629H6.9425V41.7759H11.7581C11.6176 41.5966 11.4801 41.4111 11.3578 41.2287C11.2264 41.0401 11.0982 40.8545 10.979 40.666C10.8843 40.5299 10.7957 40.3784 10.704 40.2331C10.5329 39.9517 10.3678 39.6642 10.2181 39.3798C10.1356 39.2344 10.0592 39.0829 9.98891 38.9345C9.94308 38.8387 9.89732 38.7397 9.84538 38.6439C9.66204 38.276 9.49707 37.9019 9.35346 37.5185C9.20068 37.1289 9.05702 36.7394 8.9348 36.3436C8.92563 36.322 8.91942 36.3096 8.91331 36.2879C8.87053 36.1612 8.83696 36.0375 8.80335 35.9138C8.76974 35.7809 8.727 35.6541 8.69339 35.5243C8.65978 35.3913 8.62614 35.2677 8.59253 35.1347C8.54058 34.9306 8.49476 34.7266 8.45198 34.5163C8.43976 34.4761 8.43369 34.4267 8.42453 34.371C8.4123 34.3216 8.40609 34.2721 8.39692 34.2257C8.36942 34.1113 8.35117 34.0031 8.32978 33.898C8.32978 33.8856 8.32978 33.8701 8.32367 33.864C8.287 33.663 8.25949 33.4651 8.23504 33.2672C8.20448 33.0477 8.17698 32.8437 8.15865 32.6272C8.15865 32.6272 8.15864 32.6211 8.15253 32.6149C8.12809 32.349 8.1097 32.0862 8.09748 31.8203C8.08831 31.7801 8.08829 31.7368 8.07912 31.6966C8.07607 31.5637 8.07614 31.4245 8.07614 31.2916L3.29093 26.456L4.75162 24.9843L8.20445 28.4811C8.26862 28.0019 8.35114 27.5288 8.44586 27.0527C9.12727 23.7568 10.704 20.7176 13.0599 18.2472V11.6648H15.1194V16.3829C17.133 14.84 19.4218 13.7579 21.8663 13.189V4.86585C16.4792 5.7161 11.5076 8.25448 7.58109 12.2275C-2.52703 22.4552 -2.52703 39.0953 7.58109 49.323C12.4793 54.2761 18.9879 57 25.9089 57C32.8361 57 39.3447 54.2761 44.2399 49.323C48.1756 45.3408 50.5682 40.3784 51.439 35.212H43.207Z" fill="#C2AE8C"/>
<path d="M56.9998 30.5854C57.0311 22.7437 53.9463 14.89 47.7485 8.91835C41.8482 3.2392 34.0438 0.0814323 25.7195 0V12.8573C25.9168 12.8633 26.1048 12.8633 26.3052 12.8693C26.3459 12.8784 26.3803 12.8784 26.4242 12.8844C26.6966 12.8995 26.9659 12.9115 27.2415 12.9387C27.2415 12.9387 27.2415 12.9387 27.2478 12.9387C27.7113 12.9869 28.1686 13.0533 28.6227 13.1347C28.7072 13.1468 28.7949 13.1619 28.8794 13.1739C29.274 13.2524 29.6655 13.3398 30.0539 13.4393C30.2011 13.4755 30.3483 13.5147 30.4892 13.557C30.8275 13.6505 31.1594 13.753 31.4882 13.8676C31.6824 13.934 31.8672 14.0003 32.0614 14.0697C32.3495 14.1783 32.6283 14.2959 32.9133 14.4165C33.1294 14.5191 33.3486 14.6126 33.5678 14.7212C33.7056 14.7875 33.8496 14.8629 33.9874 14.9353C34.3194 15.1072 34.6482 15.2912 34.9739 15.4782C35.0835 15.5475 35.1901 15.6169 35.3028 15.6923C35.6348 15.8944 35.9668 16.1085 36.28 16.3407C36.4021 16.4282 36.5273 16.5247 36.6494 16.6122C36.9344 16.8354 37.2163 17.0586 37.4951 17.2908C37.6266 17.4114 37.7675 17.526 37.9021 17.6497C38.0337 17.7703 38.1777 17.888 38.2999 18.0086C38.4064 18.1081 38.5066 18.2046 38.5975 18.3072C38.6256 18.3283 38.6475 18.3464 38.6537 18.3675C38.6663 18.3735 38.6757 18.3735 38.6632 18.3796C38.801 18.5153 38.9356 18.6661 39.0703 18.8078C39.1047 18.841 39.1329 18.8712 39.1611 18.9044C39.2676 19.019 39.371 19.1306 39.465 19.2482C39.6059 19.396 39.7311 19.5468 39.8376 19.7006C39.941 19.8092 40.0255 19.9268 40.1069 20.0414C40.1445 20.0806 40.182 20.1228 40.2008 20.1681C40.3073 20.2917 40.392 20.4124 40.4765 20.5421C40.4922 20.5511 40.4984 20.5511 40.4921 20.5541C40.5391 20.6114 40.5766 20.6657 40.6111 20.726C40.6299 20.7471 40.6456 20.7652 40.655 20.7924C40.7489 20.9371 40.8492 21.0729 40.94 21.2207C40.9494 21.2267 40.9494 21.2267 40.9494 21.2327C41.0057 21.3232 41.0622 21.4046 41.1154 21.4921C41.1687 21.5796 41.2156 21.661 41.2625 21.7515C41.2845 21.7756 41.3002 21.8027 41.3127 21.8299C41.3409 21.8842 41.3785 21.9385 41.4035 21.9928C41.4411 22.047 41.4692 22.1013 41.4911 22.1526C41.5538 22.2491 41.6102 22.3517 41.6603 22.4542C41.7793 22.6623 41.8858 22.8734 41.9767 23.0906L41.9829 23.0966C41.9955 23.1177 42.0111 23.1388 42.0111 23.1599C42.0236 23.169 42.0329 23.1931 42.0329 23.2052C42.0674 23.2806 42.1019 23.3469 42.13 23.4223C42.1582 23.4736 42.1802 23.5189 42.1927 23.5641C42.2303 23.6365 42.2585 23.7089 42.2836 23.7752C42.2992 23.7963 42.3054 23.8144 42.3148 23.8355C42.3242 23.8687 42.3399 23.9049 42.3556 23.9411C42.4402 24.1402 42.5185 24.3452 42.5968 24.5473C42.6719 24.7373 42.7345 24.9273 42.794 25.1173C42.8629 25.3074 42.9192 25.5034 42.9725 25.7024C43.0664 25.9829 43.1385 26.2604 43.2011 26.556C43.27 26.8455 43.3358 27.1381 43.3828 27.4276C43.4329 27.6749 43.4673 27.9162 43.5017 28.1665C43.5424 28.5134 43.5801 28.8662 43.6083 29.2252C43.6302 29.5268 43.6427 29.8374 43.6521 30.139C43.6583 30.2476 43.6646 30.3561 43.6646 30.4647C43.6646 30.5039 43.6583 30.5431 43.6583 30.5854H56.9998ZM50.1256 22.7649C51.4127 22.7649 52.4556 23.7692 52.4556 25.0057C52.4556 26.2483 51.4127 27.2527 50.1256 27.2527C48.8384 27.2527 47.7923 26.2483 47.7923 25.0057C47.7923 23.7692 48.8384 22.7649 50.1256 22.7649ZM31.2752 9.22296C29.9849 9.22296 28.9389 8.21561 28.9389 6.97905C28.9389 5.73645 29.9849 4.73212 31.2752 4.73212C32.5624 4.73212 33.6054 5.73645 33.6054 6.97905C33.6054 8.21561 32.5624 9.22296 31.2752 9.22296Z" fill="#C2AE8C"/>
</svg>
