<svg width="39" height="56" viewBox="0 0 39 56" fill="none" xmlns="http://www.w3.org/2000/svg">
<path d="M29.4532 15.7973C30.7081 16.4493 32.2548 15.9497 32.9016 14.6811L38.2235 4.25918C38.8703 2.99056 38.3711 1.43142 37.1198 0.779392C35.8508 0.127362 34.3042 0.626981 33.6574 1.8956L31.5694 5.98853H27.0419C26.0717 2.87367 23.1753 0.612851 19.7692 0.612851C16.3595 0.612851 13.477 2.87367 12.5069 5.98853H10.3275L11.2028 4.25918C11.8495 2.99056 11.3504 1.43142 10.099 0.779392C8.83009 0.127362 7.29396 0.626981 6.65069 1.8956L1.32875 12.314C0.681963 13.5861 1.18116 15.1417 2.43254 15.7973C3.69799 16.4493 5.23404 15.9497 5.89489 14.6811L7.96886 10.5846H12.5069C13.2907 13.1041 15.3365 15.0567 17.8815 15.7158V39.6956C15.3647 40.3476 13.3435 42.2683 12.535 44.7524H5.61023V41.1911C5.61023 39.7665 4.4678 38.6078 3.05121 38.6078C1.63813 38.6078 0.492187 39.7665 0.492188 41.1911V52.9098C0.492188 54.3379 1.63813 55.4932 3.05121 55.4932C4.4678 55.4932 5.61023 54.3379 5.61023 52.9098V49.3485H12.5069C13.4524 52.4882 16.3489 54.7702 19.7692 54.7702C23.1894 54.7702 26.0858 52.4882 27.0419 49.3485H31.3655V52.9098C31.3655 54.3379 32.5115 55.4932 33.9246 55.4932C35.3412 55.4932 36.4835 54.3379 36.4835 52.9098V41.1911C36.4835 39.7665 35.3412 38.6078 33.9246 38.6078C32.5115 38.6078 31.3655 39.7665 31.3655 41.1911V44.7524H27.0032C26.2088 42.2683 24.1876 40.3476 21.6532 39.6956V15.7158C24.2157 15.0567 26.2475 13.1041 27.0419 10.5846H29.2248L28.3495 12.314C27.6887 13.5861 28.1878 15.1417 29.4532 15.7973ZM25.1016 47.1089C25.1016 50.0785 22.7183 52.4882 19.7692 52.4882C16.834 52.4882 14.4331 50.0785 14.4331 47.1089C14.4331 44.1394 16.834 41.7297 19.7692 41.7297C22.7183 41.7297 25.1016 44.1394 25.1016 47.1089ZM19.7692 13.6676C16.834 13.6676 14.4331 11.2579 14.4331 8.28834C14.4331 5.31877 16.834 2.90912 19.7692 2.90912C22.7183 2.90912 25.1016 5.31877 25.1016 8.28834C25.1016 11.2579 22.7183 13.6676 19.7692 13.6676Z" fill="#C2AE8C"/>
</svg>
