<svg width="72" height="49" viewBox="0 0 72 49" fill="none" xmlns="http://www.w3.org/2000/svg">
<path d="M69.6959 15.8682C69.6959 15.8682 68.9788 14.2773 68.0922 14.2773H59.8307C58.9468 14.2773 58.2299 14.9913 58.2299 15.8682V17.4075H55.9777C55.9777 15.8872 55.9777 14.9316 55.9777 14.8393C55.9777 14.2773 55.3894 14.3289 55.3894 14.3289H50.3707C50.3707 6.52917 46.4 6.55632 46.4 6.55632H37.5201V3.90664H46.4V0H16.958V3.90664H26.6397V6.55632C26.6397 6.55632 21.7059 6.55632 17.727 6.55632L12.3689 10.6204H8.21498C7.32835 10.6204 6.61129 11.3317 6.61129 12.2086V22.4082H3.94321V11.5136H0V38.8682H3.94321V27.6071H6.61129V38.1705C6.61129 39.0474 7.32835 39.7587 8.21498 39.7587H12.3689L25.4028 49C25.4028 49 48.9669 49 52.6748 49C56.3773 49 55.9777 45.8698 55.9777 45.8698C55.9777 45.8698 55.9777 43.9748 55.9777 41.1161H58.2299V44.6264C58.2299 45.506 58.9468 46.2173 59.8307 46.2173H68.0922C68.9788 46.2173 69.6959 44.6264 69.6959 44.6264L72 37.9724V22.525L69.6959 15.8682Z" fill="#C2AE8C"/>
</svg>
