<svg width="47" height="47" viewBox="0 0 47 47" fill="none" xmlns="http://www.w3.org/2000/svg">
<path fill-rule="evenodd" clip-rule="evenodd" d="M36.8171 37.3809L35.3344 38.7114C34.9337 39.0167 34.4608 39.3694 33.9478 39.698C33.3547 40.1067 32.7456 40.4586 32.1525 40.7399C29.4675 42.1505 26.3978 42.9039 23.288 42.9039H23.24C20.0661 42.8959 17.0525 42.1345 14.2713 40.6437L12.5161 39.5938C12.0031 39.2564 11.6104 38.9686 11.2657 38.6801L11.2497 38.6721L11.0894 38.5599L9.75172 37.3336L9.66276 37.2446C5.95187 33.5426 3.9161 28.6535 3.94094 23.4679C3.94816 22.3378 4.05235 21.2718 4.25272 20.2058C4.36493 19.4757 4.51 18.8184 4.69354 18.2021C4.81376 17.7853 4.97406 17.3437 5.11833 16.9277L5.20649 16.6873C5.48701 15.9179 5.76753 15.3087 6.08813 14.7477C8.89333 9.16933 14.2954 5.28212 20.5229 4.38365C21.1721 4.28026 21.8454 4.22416 22.5026 4.21614C22.719 4.1913 22.9442 4.18328 23.1766 4.18328C23.1766 4.18328 23.377 4.17607 23.3842 4.17607C23.6968 4.17607 23.9693 4.18328 24.2659 4.22416C24.7708 4.23217 25.396 4.28828 26.2215 4.40049C32.425 5.34704 37.8038 9.27353 40.6242 14.908C40.9849 15.6373 41.2494 16.2385 41.4417 16.8067C41.6581 17.2796 41.8112 17.8414 41.9467 18.3624C42.1631 19.0677 42.3153 19.765 42.3963 20.3902C42.5638 21.3511 42.66 22.45 42.668 23.6041C42.644 28.8458 40.5681 33.7349 36.8171 37.3809ZM23.3918 0.352766C10.6161 0.296662 0.164708 10.6591 0.117421 23.4356C0.0605151 36.2273 10.4237 46.6867 23.2155 46.734C35.984 46.7829 46.4346 36.4277 46.4987 23.636C46.5388 10.8522 36.1843 0.400855 23.3918 0.352766Z" fill="#C2AE8C"/>
<path fill-rule="evenodd" clip-rule="evenodd" d="M35.3501 35.5298L29.1466 25.3429L40.1109 20.95C40.2632 21.8236 40.3193 22.7221 40.3113 23.6037C40.3033 28.1241 38.54 32.3559 35.3501 35.5298ZM33.8682 36.8846C33.4754 37.1731 33.1067 37.4697 32.6579 37.7582C32.6499 37.7582 32.6419 37.7742 32.6339 37.7902L26.222 28.9178C26.6948 28.6613 27.1276 28.3407 27.5124 27.972L33.8922 36.8517C33.8842 36.8685 33.8842 36.8685 33.8682 36.8846ZM23.2476 40.5632C20.5226 40.5471 17.9178 39.906 15.5694 38.6797L23.2236 29.6549L30.9018 38.7518C28.5455 39.9621 25.9495 40.5632 23.2476 40.5632ZM13.8466 37.6703L13.7985 37.6222C13.3898 37.3738 12.997 37.0772 12.6765 36.8055L12.6043 36.7486L19.0483 27.9242C19.425 28.3001 19.8578 28.6215 20.3226 28.87L13.8466 37.6703ZM11.1387 35.4098C7.99608 32.1966 6.26487 27.972 6.2809 23.4676C6.28892 22.594 6.37708 21.7284 6.51333 20.8388L6.62554 20.878L17.4616 25.3271L11.1387 35.4098ZM6.95293 18.8509C7.07315 18.394 7.23345 17.9372 7.40176 17.4883C7.40978 17.4795 7.41779 17.4403 7.43382 17.4242L17.8291 20.8546C17.5887 21.3195 17.4204 21.8236 17.3081 22.3454L6.92969 18.915C6.9369 18.899 6.94572 18.8741 6.95293 18.8509ZM20.6275 6.74041L19.7707 18.5543V18.5623H19.7619L8.26057 15.6289C10.7692 10.8841 15.3537 7.57395 20.6275 6.74041ZM19.2329 23.0347C18.744 23.0347 18.3433 22.6419 18.3433 22.1522C18.3433 21.6561 18.744 21.2634 19.2329 21.2634C19.7218 21.2634 20.1226 21.6561 20.1226 22.1522C20.1226 22.6419 19.7218 23.0347 19.2329 23.0347ZM20.7723 26.0731C21.2605 26.0731 21.6612 26.4659 21.6612 26.962C21.6612 27.4517 21.2605 27.8444 20.7723 27.8444C20.2826 27.8444 19.8819 27.4517 19.8819 26.962C19.8819 26.4659 20.2826 26.0731 20.7723 26.0731ZM23.3039 21.0786C24.6664 21.0786 25.7724 22.1855 25.7724 23.548C25.7724 24.9025 24.6664 26.0086 23.3039 26.0086C21.9493 26.0086 20.8433 24.9025 20.8433 23.548C20.8433 22.1855 21.9493 21.0786 23.3039 21.0786ZM23.3046 18.2579C23.8016 18.2579 24.1943 18.6506 24.1943 19.1467C24.1943 19.6364 23.8016 20.0292 23.3046 20.0292C22.8157 20.0292 22.415 19.6364 22.415 19.1467C22.415 18.6506 22.8157 18.2579 23.3046 18.2579ZM22.5601 6.55636C22.6234 6.54033 22.6876 6.53231 22.7437 6.53231C22.912 6.5235 23.0723 6.5235 23.2486 6.5235H23.489C23.6493 6.5235 23.8337 6.52349 24.1222 6.55636H24.1543L24.1142 17.4886C23.8497 17.4486 23.5772 17.4325 23.3047 17.4325C23.0322 17.4325 22.7677 17.4486 22.5032 17.4886L22.5601 6.55636ZM26.7431 26.962C26.7431 27.4517 26.3504 27.8444 25.8535 27.8444C25.3654 27.8444 24.9646 27.4517 24.9646 26.962C24.9646 26.4659 25.3654 26.0731 25.8535 26.0731C26.3504 26.0731 26.7431 26.4659 26.7431 26.962ZM28.2972 22.1522C28.2972 22.6419 27.8965 23.0347 27.4076 23.0347C26.9187 23.0347 26.5179 22.6419 26.5179 22.1522C26.5179 21.6561 26.9187 21.2634 27.4076 21.2634C27.8965 21.2634 28.2972 21.6561 28.2972 22.1522ZM38.4275 15.7332L26.8861 18.5865L26.1006 6.77258C31.3752 7.63017 35.9349 10.9804 38.4275 15.7332ZM39.2616 17.6647C39.4459 18.1056 39.591 18.5945 39.7024 19.0104C39.7024 19.0273 39.7024 19.0273 39.7104 19.0433L29.2991 22.3783C29.2029 21.8565 29.0346 21.3596 28.8102 20.8947L39.2215 17.5437C39.2376 17.5926 39.2375 17.6158 39.2616 17.6647ZM41.602 20.4855C41.5219 19.8451 41.3616 19.1879 41.1692 18.5627C41.041 18.0578 40.9047 17.5529 40.6883 17.0712C40.4719 16.4548 40.1994 15.8537 39.9109 15.2678C37.266 9.98683 32.1685 6.11565 26.1173 5.19314C25.4681 5.10578 24.8108 5.03364 24.1697 5.01761C23.9052 4.98475 23.6567 4.97754 23.3922 4.97754C23.1037 4.98475 22.8312 4.97754 22.5667 5.01761C21.9175 5.02563 21.2603 5.08173 20.6351 5.17791C14.5759 6.05073 9.43832 9.87463 6.78539 15.1484C6.44877 15.7335 6.19229 16.3266 5.95986 16.9518C5.79155 17.4327 5.60721 17.9376 5.46294 18.4345C5.2786 19.0517 5.14315 19.6928 5.03815 20.3493C4.84579 21.3768 4.74962 22.4019 4.7424 23.4679C4.71756 28.6286 6.8415 33.3013 10.2318 36.6764L10.2959 36.7405L11.6344 37.9668L11.6905 37.9908C12.0832 38.3274 12.516 38.632 12.9328 38.9045L14.648 39.9384C17.2047 41.309 20.1141 42.0944 23.2399 42.1024C26.3257 42.1104 29.2431 41.3651 31.8078 40.0186C32.4009 39.738 32.9788 39.3934 33.515 39.0247C33.9638 38.7362 34.3886 38.4236 34.7982 38.1102L36.2561 36.8054C39.6864 33.4704 41.8424 28.7905 41.8665 23.6121C41.8585 22.5534 41.7783 21.5042 41.602 20.4855Z" fill="#C2AE8C"/>
</svg>
